<svg xmlns="http://www.w3.org/2000/svg" width="1230" height="1218" viewBox="0 0 1230 1218">
<rect width="100%" height="100%" fill="#fafaf8"/>
<style>text{font-family:Arial,sans-serif;fill:#25313c;font-size:12px}.title{font-size:20px;font-weight:bold}.panel{font-size:14px;font-weight:bold}</style>
<text x="20" y="30" class="title">gavroche-v24-selective-feed vs gavroche-v16-informed-divecap</text>
<text x="20" y="54">queen_of_spades · candidate side A · winner B · 248 rounds · elimination</text>
<text x="20" y="79" style="fill:#1677b8">━━ gavroche-v24-selective-feed</text>
<text x="635" y="79" style="fill:#c35c20">━━ gavroche-v16-informed-divecap</text>
<text x="21" y="122" class="panel">Living dragons</text>
<path d="M60,280h338" stroke="#dce1e5"/>
<text x="54" y="284" text-anchor="end">0</text>
<text x="60" y="298" text-anchor="middle">0</text>
<path d="M60,208.5h338" stroke="#dce1e5"/>
<text x="54" y="212.5" text-anchor="end">13</text>
<text x="229.0" y="298" text-anchor="middle">124</text>
<path d="M60,137h338" stroke="#dce1e5"/>
<text x="54" y="141" text-anchor="end">26</text>
<text x="398" y="298" text-anchor="middle">248</text>
<polyline points="60.0,269.0 61.4,269.0 62.7,269.0 64.1,269.0 65.5,269.0 66.8,269.0 68.2,269.0 69.5,269.0 70.9,269.0 72.3,269.0 73.6,269.0 75.0,269.0 76.4,269.0 77.7,263.5 79.1,263.5 80.4,263.5 81.8,263.5 83.2,263.5 84.5,269.0 85.9,269.0 87.3,263.5 88.6,263.5 90.0,263.5 91.3,263.5 92.7,263.5 94.1,263.5 95.4,263.5 96.8,258.0 98.2,258.0 99.5,258.0 100.9,258.0 102.2,258.0 103.6,258.0 105.0,252.5 106.3,252.5 107.7,252.5 109.1,263.5 110.4,263.5 111.8,258.0 113.2,258.0 114.5,258.0 115.9,258.0 117.2,252.5 118.6,258.0 120.0,252.5 121.3,252.5 122.7,252.5 124.1,247.0 125.4,241.5 126.8,241.5 128.1,247.0 129.5,241.5 130.9,241.5 132.2,247.0 133.6,247.0 135.0,241.5 136.3,241.5 137.7,241.5 139.0,236.0 140.4,236.0 141.8,247.0 143.1,247.0 144.5,247.0 145.9,247.0 147.2,247.0 148.6,247.0 150.0,247.0 151.3,241.5 152.7,241.5 154.0,241.5 155.4,241.5 156.8,236.0 158.1,236.0 159.5,236.0 160.9,236.0 162.2,241.5 163.6,236.0 164.9,241.5 166.3,236.0 167.7,236.0 169.0,236.0 170.4,236.0 171.8,236.0 173.1,225.0 174.5,230.5 175.8,230.5 177.2,230.5 178.6,230.5 179.9,225.0 181.3,225.0 182.7,230.5 184.0,236.0 185.4,236.0 186.8,230.5 188.1,230.5 189.5,236.0 190.8,236.0 192.2,236.0 193.6,225.0 194.9,225.0 196.3,241.5 197.7,247.0 199.0,247.0 200.4,241.5 201.7,252.5 203.1,252.5 204.5,241.5 205.8,247.0 207.2,252.5 208.6,258.0 209.9,263.5 211.3,263.5 212.6,258.0 214.0,263.5 215.4,263.5 216.7,269.0 218.1,269.0 219.5,269.0 220.8,269.0 222.2,263.5 223.5,263.5 224.9,263.5 226.3,263.5 227.6,258.0 229.0,258.0 230.4,258.0 231.7,263.5 233.1,258.0 234.5,258.0 235.8,252.5 237.2,247.0 238.5,247.0 239.9,258.0 241.3,258.0 242.6,258.0 244.0,258.0 245.4,269.0 246.7,269.0 248.1,269.0 249.4,269.0 250.8,269.0 252.2,269.0 253.5,263.5 254.9,263.5 256.3,263.5 257.6,263.5 259.0,263.5 260.3,263.5 261.7,258.0 263.1,258.0 264.4,263.5 265.8,263.5 267.2,269.0 268.5,269.0 269.9,269.0 271.2,269.0 272.6,269.0 274.0,269.0 275.3,269.0 276.7,269.0 278.1,269.0 279.4,269.0 280.8,269.0 282.2,269.0 283.5,269.0 284.9,269.0 286.2,269.0 287.6,269.0 289.0,269.0 290.3,269.0 291.7,269.0 293.1,269.0 294.4,269.0 295.8,269.0 297.1,269.0 298.5,269.0 299.9,269.0 301.2,269.0 302.6,269.0 304.0,269.0 305.3,269.0 306.7,269.0 308.0,269.0 309.4,269.0 310.8,269.0 312.1,269.0 313.5,269.0 314.9,269.0 316.2,269.0 317.6,269.0 319.0,269.0 320.3,269.0 321.7,274.5 323.0,274.5 324.4,274.5 325.8,274.5 327.1,274.5 328.5,274.5 329.9,274.5 331.2,274.5 332.6,274.5 333.9,274.5 335.3,274.5 336.7,274.5 338.0,274.5 339.4,274.5 340.8,274.5 342.1,274.5 343.5,274.5 344.8,274.5 346.2,274.5 347.6,274.5 348.9,274.5 350.3,274.5 351.7,274.5 353.0,274.5 354.4,274.5 355.8,274.5 357.1,274.5 358.5,274.5 359.8,274.5 361.2,274.5 362.6,274.5 363.9,274.5 365.3,274.5 366.7,274.5 368.0,274.5 369.4,274.5 370.7,274.5 372.1,274.5 373.5,274.5 374.8,274.5 376.2,274.5 377.6,274.5 378.9,274.5 380.3,274.5 381.6,274.5 383.0,274.5 384.4,274.5 385.7,274.5 387.1,274.5 388.5,274.5 389.8,274.5 391.2,274.5 392.5,274.5 393.9,274.5 395.3,274.5 396.6,274.5 398.0,280.0" fill="none" stroke="#1677b8" stroke-width="1.8"/>
<polyline points="60.0,269.0 61.4,269.0 62.7,269.0 64.1,269.0 65.5,269.0 66.8,269.0 68.2,269.0 69.5,269.0 70.9,269.0 72.3,269.0 73.6,269.0 75.0,269.0 76.4,269.0 77.7,269.0 79.1,269.0 80.4,269.0 81.8,269.0 83.2,269.0 84.5,269.0 85.9,269.0 87.3,269.0 88.6,269.0 90.0,269.0 91.3,269.0 92.7,269.0 94.1,269.0 95.4,269.0 96.8,269.0 98.2,269.0 99.5,269.0 100.9,269.0 102.2,269.0 103.6,263.5 105.0,263.5 106.3,263.5 107.7,263.5 109.1,263.5 110.4,263.5 111.8,263.5 113.2,263.5 114.5,263.5 115.9,263.5 117.2,263.5 118.6,258.0 120.0,258.0 121.3,258.0 122.7,258.0 124.1,258.0 125.4,258.0 126.8,258.0 128.1,258.0 129.5,258.0 130.9,258.0 132.2,258.0 133.6,258.0 135.0,252.5 136.3,252.5 137.7,252.5 139.0,252.5 140.4,252.5 141.8,252.5 143.1,252.5 144.5,252.5 145.9,252.5 147.2,252.5 148.6,247.0 150.0,247.0 151.3,241.5 152.7,236.0 154.0,236.0 155.4,236.0 156.8,230.5 158.1,230.5 159.5,230.5 160.9,230.5 162.2,230.5 163.6,230.5 164.9,230.5 166.3,230.5 167.7,230.5 169.0,230.5 170.4,230.5 171.8,230.5 173.1,230.5 174.5,230.5 175.8,230.5 177.2,230.5 178.6,230.5 179.9,230.5 181.3,230.5 182.7,230.5 184.0,230.5 185.4,230.5 186.8,230.5 188.1,230.5 189.5,230.5 190.8,230.5 192.2,225.0 193.6,225.0 194.9,219.5 196.3,230.5 197.7,230.5 199.0,225.0 200.4,225.0 201.7,225.0 203.1,225.0 204.5,214.0 205.8,214.0 207.2,214.0 208.6,219.5 209.9,214.0 211.3,208.5 212.6,208.5 214.0,208.5 215.4,208.5 216.7,214.0 218.1,214.0 219.5,214.0 220.8,214.0 222.2,214.0 223.5,214.0 224.9,214.0 226.3,214.0 227.6,214.0 229.0,214.0 230.4,214.0 231.7,208.5 233.1,208.5 234.5,208.5 235.8,203.0 237.2,203.0 238.5,203.0 239.9,203.0 241.3,197.5 242.6,197.5 244.0,197.5 245.4,186.5 246.7,197.5 248.1,192.0 249.4,203.0 250.8,203.0 252.2,186.5 253.5,181.0 254.9,186.5 256.3,186.5 257.6,186.5 259.0,181.0 260.3,181.0 261.7,175.5 263.1,175.5 264.4,181.0 265.8,175.5 267.2,181.0 268.5,181.0 269.9,181.0 271.2,181.0 272.6,175.5 274.0,181.0 275.3,175.5 276.7,170.0 278.1,170.0 279.4,159.0 280.8,164.5 282.2,170.0 283.5,153.5 284.9,153.5 286.2,148.0 287.6,153.5 289.0,153.5 290.3,142.5 291.7,148.0 293.1,148.0 294.4,148.0 295.8,148.0 297.1,148.0 298.5,142.5 299.9,153.5 301.2,153.5 302.6,148.0 304.0,148.0 305.3,153.5 306.7,148.0 308.0,137.0 309.4,142.5 310.8,148.0 312.1,148.0 313.5,153.5 314.9,153.5 316.2,148.0 317.6,153.5 319.0,142.5 320.3,142.5 321.7,142.5 323.0,148.0 324.4,148.0 325.8,148.0 327.1,142.5 328.5,148.0 329.9,148.0 331.2,153.5 332.6,153.5 333.9,153.5 335.3,153.5 336.7,153.5 338.0,153.5 339.4,153.5 340.8,153.5 342.1,159.0 343.5,159.0 344.8,164.5 346.2,159.0 347.6,170.0 348.9,175.5 350.3,175.5 351.7,170.0 353.0,170.0 354.4,170.0 355.8,164.5 357.1,159.0 358.5,148.0 359.8,148.0 361.2,148.0 362.6,148.0 363.9,153.5 365.3,148.0 366.7,148.0 368.0,142.5 369.4,142.5 370.7,142.5 372.1,142.5 373.5,153.5 374.8,148.0 376.2,137.0 377.6,137.0 378.9,142.5 380.3,148.0 381.6,153.5 383.0,153.5 384.4,148.0 385.7,153.5 387.1,153.5 388.5,153.5 389.8,148.0 391.2,153.5 392.5,148.0 393.9,148.0 395.3,148.0 396.6,148.0 398.0,153.5" fill="none" stroke="#c35c20" stroke-width="1.8"/>
<text x="229.0" y="314" text-anchor="middle">Round</text>
<text x="426" y="122" class="panel">Total length</text>
<path d="M465,280h338" stroke="#dce1e5"/>
<text x="459" y="284" text-anchor="end">0</text>
<text x="465" y="298" text-anchor="middle">0</text>
<path d="M465,208.5h338" stroke="#dce1e5"/>
<text x="459" y="212.5" text-anchor="end">32</text>
<text x="634.0" y="298" text-anchor="middle">124</text>
<path d="M465,137h338" stroke="#dce1e5"/>
<text x="459" y="141" text-anchor="end">64</text>
<text x="803" y="298" text-anchor="middle">248</text>
<polyline points="465.0,266.6 466.4,266.6 467.7,266.6 469.1,266.6 470.5,266.6 471.8,266.6 473.2,266.6 474.5,266.6 475.9,266.6 477.3,266.6 478.6,266.6 480.0,266.6 481.4,264.4 482.7,264.4 484.1,264.4 485.4,264.4 486.8,264.4 488.2,264.4 489.5,266.6 490.9,264.4 492.3,262.1 493.6,262.1 495.0,262.1 496.3,262.1 497.7,262.1 499.1,262.1 500.4,259.9 501.8,259.9 503.2,259.9 504.5,259.9 505.9,257.7 507.2,257.7 508.6,253.2 510.0,251.0 511.3,251.0 512.7,251.0 514.1,259.9 515.4,257.7 516.8,255.4 518.2,259.9 519.5,257.7 520.9,253.2 522.2,253.2 523.6,255.4 525.0,255.4 526.3,253.2 527.7,251.0 529.1,244.2 530.4,242.0 531.8,242.0 533.1,244.2 534.5,242.0 535.9,246.5 537.2,248.7 538.6,246.5 540.0,244.2 541.3,242.0 542.7,237.5 544.0,237.5 545.4,228.6 546.8,244.2 548.1,246.5 549.5,242.0 550.9,242.0 552.2,242.0 553.6,242.0 555.0,239.8 556.3,237.5 557.7,235.3 559.0,235.3 560.4,233.1 561.8,233.1 563.1,233.1 564.5,233.1 565.9,230.8 567.2,235.3 568.6,233.1 569.9,235.3 571.3,235.3 572.7,235.3 574.0,235.3 575.4,233.1 576.8,228.6 578.1,226.4 579.5,228.6 580.8,226.4 582.2,226.4 583.6,224.1 584.9,219.7 586.3,224.1 587.7,226.4 589.0,233.1 590.4,228.6 591.8,224.1 593.1,233.1 594.5,237.5 595.8,235.3 597.2,230.8 598.6,230.8 599.9,226.4 601.3,239.8 602.7,244.2 604.0,242.0 605.4,239.8 606.7,253.2 608.1,248.7 609.5,246.5 610.8,248.7 612.2,253.2 613.6,259.9 614.9,264.4 616.3,262.1 617.6,259.9 619.0,266.6 620.4,262.1 621.7,268.8 623.1,268.8 624.5,266.6 625.8,264.4 627.2,264.4 628.5,262.1 629.9,259.9 631.3,257.7 632.6,257.7 634.0,255.4 635.4,255.4 636.7,259.9 638.1,259.9 639.5,255.4 640.8,253.2 642.2,253.2 643.5,253.2 644.9,262.1 646.3,262.1 647.6,262.1 649.0,257.7 650.4,271.1 651.7,271.1 653.1,268.8 654.4,268.8 655.8,268.8 657.2,266.6 658.5,264.4 659.9,264.4 661.3,264.4 662.6,264.4 664.0,264.4 665.3,262.1 666.7,262.1 668.1,262.1 669.4,266.6 670.8,266.6 672.2,271.1 673.5,271.1 674.9,271.1 676.2,271.1 677.6,271.1 679.0,271.1 680.3,271.1 681.7,271.1 683.1,271.1 684.4,271.1 685.8,271.1 687.2,271.1 688.5,271.1 689.9,271.1 691.2,271.1 692.6,271.1 694.0,271.1 695.3,271.1 696.7,268.8 698.1,268.8 699.4,268.8 700.8,268.8 702.1,268.8 703.5,268.8 704.9,268.8 706.2,268.8 707.6,268.8 709.0,268.8 710.3,268.8 711.7,268.8 713.0,268.8 714.4,268.8 715.8,268.8 717.1,268.8 718.5,268.8 719.9,268.8 721.2,268.8 722.6,268.8 724.0,268.8 725.3,268.8 726.7,275.5 728.0,275.5 729.4,275.5 730.8,275.5 732.1,275.5 733.5,275.5 734.9,275.5 736.2,275.5 737.6,275.5 738.9,275.5 740.3,275.5 741.7,275.5 743.0,275.5 744.4,275.5 745.8,275.5 747.1,275.5 748.5,275.5 749.8,275.5 751.2,275.5 752.6,275.5 753.9,275.5 755.3,275.5 756.7,275.5 758.0,275.5 759.4,275.5 760.8,275.5 762.1,275.5 763.5,275.5 764.8,275.5 766.2,275.5 767.6,275.5 768.9,275.5 770.3,275.5 771.7,275.5 773.0,275.5 774.4,275.5 775.7,275.5 777.1,275.5 778.5,275.5 779.8,275.5 781.2,275.5 782.6,275.5 783.9,275.5 785.3,275.5 786.6,275.5 788.0,275.5 789.4,275.5 790.7,275.5 792.1,275.5 793.5,275.5 794.8,275.5 796.2,275.5 797.5,275.5 798.9,275.5 800.3,275.5 801.6,275.5 803.0,280.0" fill="none" stroke="#1677b8" stroke-width="1.8"/>
<polyline points="465.0,266.6 466.4,266.6 467.7,266.6 469.1,266.6 470.5,266.6 471.8,266.6 473.2,266.6 474.5,266.6 475.9,266.6 477.3,266.6 478.6,266.6 480.0,266.6 481.4,266.6 482.7,266.6 484.1,266.6 485.4,266.6 486.8,266.6 488.2,266.6 489.5,266.6 490.9,266.6 492.3,266.6 493.6,266.6 495.0,266.6 496.3,266.6 497.7,266.6 499.1,266.6 500.4,266.6 501.8,266.6 503.2,266.6 504.5,266.6 505.9,264.4 507.2,264.4 508.6,264.4 510.0,264.4 511.3,264.4 512.7,264.4 514.1,264.4 515.4,264.4 516.8,264.4 518.2,264.4 519.5,264.4 520.9,264.4 522.2,262.1 523.6,262.1 525.0,262.1 526.3,259.9 527.7,259.9 529.1,259.9 530.4,259.9 531.8,259.9 533.1,259.9 534.5,259.9 535.9,259.9 537.2,259.9 538.6,257.7 540.0,257.7 541.3,257.7 542.7,257.7 544.0,255.4 545.4,253.2 546.8,253.2 548.1,253.2 549.5,253.2 550.9,253.2 552.2,251.0 553.6,246.5 555.0,244.2 556.3,242.0 557.7,239.8 559.0,237.5 560.4,235.3 561.8,235.3 563.1,233.1 564.5,233.1 565.9,233.1 567.2,237.5 568.6,237.5 569.9,237.5 571.3,237.5 572.7,235.3 574.0,235.3 575.4,235.3 576.8,235.3 578.1,235.3 579.5,235.3 580.8,235.3 582.2,235.3 583.6,235.3 584.9,235.3 586.3,235.3 587.7,235.3 589.0,235.3 590.4,235.3 591.8,230.8 593.1,230.8 594.5,230.8 595.8,226.4 597.2,226.4 598.6,221.9 599.9,221.9 601.3,233.1 602.7,230.8 604.0,226.4 605.4,219.7 606.7,226.4 608.1,221.9 609.5,219.7 610.8,217.4 612.2,217.4 613.6,219.7 614.9,215.2 616.3,215.2 617.6,215.2 619.0,215.2 620.4,215.2 621.7,221.9 623.1,221.9 624.5,221.9 625.8,221.9 627.2,221.9 628.5,221.9 629.9,221.9 631.3,219.7 632.6,219.7 634.0,219.7 635.4,217.4 636.7,217.4 638.1,215.2 639.5,213.0 640.8,213.0 642.2,210.7 643.5,208.5 644.9,204.0 646.3,204.0 647.6,199.6 649.0,195.1 650.4,195.1 651.7,201.8 653.1,195.1 654.4,204.0 655.8,197.3 657.2,195.1 658.5,190.6 659.9,195.1 661.3,195.1 662.6,192.9 664.0,192.9 665.3,188.4 666.7,188.4 668.1,183.9 669.4,188.4 670.8,181.7 672.2,188.4 673.5,188.4 674.9,188.4 676.2,186.2 677.6,183.9 679.0,181.7 680.3,179.5 681.7,172.8 683.1,166.0 684.4,170.5 685.8,170.5 687.2,163.8 688.5,161.6 689.9,157.1 691.2,154.9 692.6,159.3 694.0,154.9 695.3,154.9 696.7,159.3 698.1,152.6 699.4,159.3 700.8,159.3 702.1,157.1 703.5,154.9 704.9,168.3 706.2,166.0 707.6,163.8 709.0,161.6 710.3,163.8 711.7,159.3 713.0,157.1 714.4,159.3 715.8,159.3 717.1,161.6 718.5,161.6 719.9,157.1 721.2,159.3 722.6,157.1 724.0,154.9 725.3,150.4 726.7,157.1 728.0,159.3 729.4,154.9 730.8,152.6 732.1,150.4 733.5,157.1 734.9,154.9 736.2,161.6 737.6,161.6 738.9,161.6 740.3,161.6 741.7,161.6 743.0,161.6 744.4,161.6 745.8,159.3 747.1,163.8 748.5,161.6 749.8,166.0 751.2,163.8 752.6,172.8 753.9,177.2 755.3,175.0 756.7,175.0 758.0,170.5 759.4,168.3 760.8,163.8 762.1,157.1 763.5,154.9 764.8,145.9 766.2,152.6 767.6,157.1 768.9,157.1 770.3,157.1 771.7,152.6 773.0,148.2 774.4,145.9 775.7,139.2 777.1,143.7 778.5,152.6 779.8,148.2 781.2,139.2 782.6,137.0 783.9,141.5 785.3,150.4 786.6,157.1 788.0,152.6 789.4,152.6 790.7,159.3 792.1,154.9 793.5,157.1 794.8,150.4 796.2,154.9 797.5,154.9 798.9,154.9 800.3,154.9 801.6,152.6 803.0,157.1" fill="none" stroke="#c35c20" stroke-width="1.8"/>
<text x="634.0" y="314" text-anchor="middle">Round</text>
<text x="831" y="122" class="panel">Longest dragon</text>
<path d="M870,280h338" stroke="#dce1e5"/>
<text x="864" y="284" text-anchor="end">0</text>
<text x="870" y="298" text-anchor="middle">0</text>
<path d="M870,208.5h338" stroke="#dce1e5"/>
<text x="864" y="212.5" text-anchor="end">2.5</text>
<text x="1039.0" y="298" text-anchor="middle">124</text>
<path d="M870,137h338" stroke="#dce1e5"/>
<text x="864" y="141" text-anchor="end">5</text>
<text x="1208" y="298" text-anchor="middle">248</text>
<polyline points="870.0,194.2 871.4,194.2 872.7,194.2 874.1,194.2 875.5,194.2 876.8,194.2 878.2,194.2 879.5,194.2 880.9,194.2 882.3,194.2 883.6,194.2 885.0,194.2 886.4,165.6 887.7,194.2 889.1,194.2 890.4,194.2 891.8,194.2 893.2,194.2 894.5,194.2 895.9,165.6 897.3,194.2 898.6,194.2 900.0,194.2 901.3,194.2 902.7,194.2 904.1,194.2 905.4,165.6 906.8,194.2 908.2,194.2 909.5,194.2 910.9,194.2 912.2,194.2 913.6,165.6 915.0,194.2 916.3,194.2 917.7,194.2 919.1,194.2 920.4,165.6 921.8,165.6 923.2,194.2 924.5,194.2 925.9,165.6 927.2,194.2 928.6,165.6 930.0,194.2 931.3,194.2 932.7,165.6 934.1,165.6 935.4,194.2 936.8,194.2 938.1,165.6 939.5,165.6 940.9,194.2 942.2,194.2 943.6,165.6 945.0,194.2 946.3,194.2 947.7,165.6 949.0,194.2 950.4,165.6 951.8,165.6 953.1,194.2 954.5,194.2 955.9,194.2 957.2,194.2 958.6,194.2 960.0,165.6 961.3,194.2 962.7,194.2 964.0,194.2 965.4,165.6 966.8,194.2 968.1,194.2 969.5,194.2 970.9,194.2 972.2,165.6 973.6,194.2 974.9,165.6 976.3,194.2 977.7,194.2 979.0,194.2 980.4,194.2 981.8,165.6 983.1,194.2 984.5,194.2 985.8,194.2 987.2,194.2 988.6,165.6 989.9,165.6 991.3,194.2 992.7,194.2 994.0,194.2 995.4,165.6 996.8,137.0 998.1,194.2 999.5,194.2 1000.8,194.2 1002.2,165.6 1003.6,194.2 1004.9,194.2 1006.3,194.2 1007.7,194.2 1009.0,165.6 1010.4,165.6 1011.7,194.2 1013.1,165.6 1014.5,194.2 1015.8,194.2 1017.2,194.2 1018.6,194.2 1019.9,194.2 1021.3,165.6 1022.6,194.2 1024.0,222.8 1025.4,194.2 1026.7,194.2 1028.1,194.2 1029.5,194.2 1030.8,165.6 1032.2,194.2 1033.5,194.2 1034.9,194.2 1036.3,165.6 1037.6,194.2 1039.0,194.2 1040.4,194.2 1041.7,165.6 1043.1,194.2 1044.5,165.6 1045.8,165.6 1047.2,222.8 1048.5,222.8 1049.9,222.8 1051.3,222.8 1052.6,222.8 1054.0,194.2 1055.4,222.8 1056.7,222.8 1058.1,194.2 1059.4,194.2 1060.8,194.2 1062.2,165.6 1063.5,194.2 1064.9,194.2 1066.3,194.2 1067.6,194.2 1069.0,194.2 1070.3,165.6 1071.7,222.8 1073.1,222.8 1074.4,222.8 1075.8,222.8 1077.2,222.8 1078.5,222.8 1079.9,222.8 1081.2,222.8 1082.6,222.8 1084.0,222.8 1085.3,222.8 1086.7,222.8 1088.1,222.8 1089.4,222.8 1090.8,222.8 1092.2,222.8 1093.5,222.8 1094.9,222.8 1096.2,222.8 1097.6,222.8 1099.0,222.8 1100.3,222.8 1101.7,194.2 1103.1,194.2 1104.4,194.2 1105.8,194.2 1107.1,194.2 1108.5,194.2 1109.9,194.2 1111.2,194.2 1112.6,194.2 1114.0,194.2 1115.3,194.2 1116.7,194.2 1118.0,194.2 1119.4,194.2 1120.8,194.2 1122.1,194.2 1123.5,194.2 1124.9,194.2 1126.2,194.2 1127.6,194.2 1129.0,194.2 1130.3,194.2 1131.7,222.8 1133.0,222.8 1134.4,222.8 1135.8,222.8 1137.1,222.8 1138.5,222.8 1139.9,222.8 1141.2,222.8 1142.6,222.8 1143.9,222.8 1145.3,222.8 1146.7,222.8 1148.0,222.8 1149.4,222.8 1150.8,222.8 1152.1,222.8 1153.5,222.8 1154.8,222.8 1156.2,222.8 1157.6,222.8 1158.9,222.8 1160.3,222.8 1161.7,222.8 1163.0,222.8 1164.4,222.8 1165.8,222.8 1167.1,222.8 1168.5,222.8 1169.8,222.8 1171.2,222.8 1172.6,222.8 1173.9,222.8 1175.3,222.8 1176.7,222.8 1178.0,222.8 1179.4,222.8 1180.7,222.8 1182.1,222.8 1183.5,222.8 1184.8,222.8 1186.2,222.8 1187.6,222.8 1188.9,222.8 1190.3,222.8 1191.6,222.8 1193.0,222.8 1194.4,222.8 1195.7,222.8 1197.1,222.8 1198.5,222.8 1199.8,222.8 1201.2,222.8 1202.5,222.8 1203.9,222.8 1205.3,222.8 1206.6,222.8 1208.0,280.0" fill="none" stroke="#1677b8" stroke-width="1.8"/>
<polyline points="870.0,194.2 871.4,194.2 872.7,194.2 874.1,194.2 875.5,194.2 876.8,194.2 878.2,194.2 879.5,194.2 880.9,194.2 882.3,194.2 883.6,194.2 885.0,194.2 886.4,194.2 887.7,194.2 889.1,194.2 890.4,194.2 891.8,194.2 893.2,194.2 894.5,194.2 895.9,194.2 897.3,194.2 898.6,194.2 900.0,194.2 901.3,194.2 902.7,194.2 904.1,194.2 905.4,194.2 906.8,194.2 908.2,194.2 909.5,194.2 910.9,165.6 912.2,165.6 913.6,194.2 915.0,194.2 916.3,194.2 917.7,194.2 919.1,194.2 920.4,194.2 921.8,194.2 923.2,194.2 924.5,194.2 925.9,194.2 927.2,165.6 928.6,222.8 930.0,222.8 931.3,194.2 932.7,194.2 934.1,194.2 935.4,194.2 936.8,194.2 938.1,194.2 939.5,194.2 940.9,194.2 942.2,194.2 943.6,165.6 945.0,222.8 946.3,222.8 947.7,222.8 949.0,194.2 950.4,194.2 951.8,194.2 953.1,194.2 954.5,194.2 955.9,194.2 957.2,165.6 958.6,194.2 960.0,165.6 961.3,165.6 962.7,194.2 964.0,194.2 965.4,165.6 966.8,194.2 968.1,194.2 969.5,194.2 970.9,165.6 972.2,194.2 973.6,194.2 974.9,194.2 976.3,194.2 977.7,194.2 979.0,194.2 980.4,194.2 981.8,194.2 983.1,194.2 984.5,194.2 985.8,194.2 987.2,194.2 988.6,194.2 989.9,194.2 991.3,194.2 992.7,194.2 994.0,194.2 995.4,194.2 996.8,194.2 998.1,194.2 999.5,194.2 1000.8,165.6 1002.2,194.2 1003.6,165.6 1004.9,194.2 1006.3,194.2 1007.7,165.6 1009.0,194.2 1010.4,165.6 1011.7,194.2 1013.1,165.6 1014.5,194.2 1015.8,194.2 1017.2,194.2 1018.6,165.6 1019.9,165.6 1021.3,194.2 1022.6,194.2 1024.0,194.2 1025.4,194.2 1026.7,194.2 1028.1,194.2 1029.5,194.2 1030.8,194.2 1032.2,194.2 1033.5,194.2 1034.9,194.2 1036.3,194.2 1037.6,194.2 1039.0,194.2 1040.4,165.6 1041.7,194.2 1043.1,194.2 1044.5,165.6 1045.8,194.2 1047.2,194.2 1048.5,194.2 1049.9,165.6 1051.3,194.2 1052.6,194.2 1054.0,165.6 1055.4,194.2 1056.7,165.6 1058.1,194.2 1059.4,194.2 1060.8,165.6 1062.2,165.6 1063.5,194.2 1064.9,194.2 1066.3,194.2 1067.6,165.6 1069.0,194.2 1070.3,165.6 1071.7,194.2 1073.1,194.2 1074.4,165.6 1075.8,194.2 1077.2,194.2 1078.5,194.2 1079.9,194.2 1081.2,165.6 1082.6,194.2 1084.0,165.6 1085.3,165.6 1086.7,194.2 1088.1,165.6 1089.4,194.2 1090.8,194.2 1092.2,165.6 1093.5,194.2 1094.9,165.6 1096.2,194.2 1097.6,194.2 1099.0,165.6 1100.3,194.2 1101.7,194.2 1103.1,165.6 1104.4,194.2 1105.8,194.2 1107.1,165.6 1108.5,194.2 1109.9,194.2 1111.2,165.6 1112.6,194.2 1114.0,194.2 1115.3,165.6 1116.7,165.6 1118.0,194.2 1119.4,194.2 1120.8,165.6 1122.1,165.6 1123.5,137.0 1124.9,137.0 1126.2,194.2 1127.6,165.6 1129.0,194.2 1130.3,165.6 1131.7,194.2 1133.0,194.2 1134.4,194.2 1135.8,165.6 1137.1,165.6 1138.5,194.2 1139.9,194.2 1141.2,194.2 1142.6,194.2 1143.9,194.2 1145.3,194.2 1146.7,194.2 1148.0,194.2 1149.4,194.2 1150.8,194.2 1152.1,194.2 1153.5,165.6 1154.8,165.6 1156.2,165.6 1157.6,194.2 1158.9,194.2 1160.3,165.6 1161.7,194.2 1163.0,194.2 1164.4,165.6 1165.8,165.6 1167.1,165.6 1168.5,194.2 1169.8,165.6 1171.2,165.6 1172.6,194.2 1173.9,165.6 1175.3,194.2 1176.7,165.6 1178.0,194.2 1179.4,165.6 1180.7,137.0 1182.1,194.2 1183.5,165.6 1184.8,165.6 1186.2,165.6 1187.6,194.2 1188.9,165.6 1190.3,165.6 1191.6,194.2 1193.0,165.6 1194.4,194.2 1195.7,194.2 1197.1,165.6 1198.5,165.6 1199.8,194.2 1201.2,165.6 1202.5,194.2 1203.9,194.2 1205.3,194.2 1206.6,194.2 1208.0,165.6" fill="none" stroke="#c35c20" stroke-width="1.8"/>
<text x="1039.0" y="314" text-anchor="middle">Round</text>
<text x="21" y="337" class="panel">Pearls collected · cumulative</text>
<path d="M60,495h338" stroke="#dce1e5"/>
<text x="54" y="499" text-anchor="end">0</text>
<text x="60" y="513" text-anchor="middle">0</text>
<path d="M60,423.5h338" stroke="#dce1e5"/>
<text x="54" y="427.5" text-anchor="end">99.5</text>
<text x="229.0" y="513" text-anchor="middle">124</text>
<path d="M60,352h338" stroke="#dce1e5"/>
<text x="54" y="356" text-anchor="end">199</text>
<text x="398" y="513" text-anchor="middle">248</text>
<polyline points="60.0,495.0 61.4,495.0 62.7,495.0 64.1,495.0 65.5,495.0 66.8,495.0 68.2,495.0 69.5,495.0 70.9,495.0 72.3,495.0 73.6,495.0 75.0,495.0 76.4,494.3 77.7,494.3 79.1,494.3 80.4,494.3 81.8,494.3 83.2,494.3 84.5,493.6 85.9,492.8 87.3,492.1 88.6,492.1 90.0,492.1 91.3,492.1 92.7,492.1 94.1,492.1 95.4,491.4 96.8,491.4 98.2,491.4 99.5,491.4 100.9,490.7 102.2,490.7 103.6,489.3 105.0,488.5 106.3,488.5 107.7,488.5 109.1,488.5 110.4,487.8 111.8,487.1 113.2,487.1 114.5,486.4 115.9,484.9 117.2,484.9 118.6,484.2 120.0,484.2 121.3,483.5 122.7,482.8 124.1,480.6 125.4,479.9 126.8,479.9 128.1,478.5 129.5,477.8 130.9,477.8 132.2,477.0 133.6,476.3 135.0,475.6 136.3,474.9 137.7,473.4 139.0,473.4 140.4,470.6 141.8,469.1 143.1,468.4 144.5,467.0 145.9,467.0 147.2,467.0 148.6,467.0 150.0,466.3 151.3,465.5 152.7,464.8 154.0,464.8 155.4,464.1 156.8,464.1 158.1,464.1 159.5,464.1 160.9,463.4 162.2,462.7 163.6,461.9 164.9,461.2 166.3,461.2 167.7,461.2 169.0,461.2 170.4,460.5 171.8,459.1 173.1,458.4 174.5,457.6 175.8,456.9 177.2,456.9 178.6,456.2 179.9,454.8 181.3,454.8 182.7,454.0 184.0,454.0 185.4,452.6 186.8,451.2 188.1,450.4 189.5,450.4 190.8,449.7 192.2,448.3 193.6,448.3 194.9,446.9 196.3,446.1 197.7,445.4 199.0,444.7 200.4,443.3 201.7,442.5 203.1,441.1 204.5,440.4 205.8,438.9 207.2,438.9 208.6,438.9 209.9,438.9 211.3,438.2 212.6,437.5 214.0,437.5 215.4,436.1 216.7,436.1 218.1,436.1 219.5,435.4 220.8,434.6 222.2,434.6 223.5,433.9 224.9,433.2 226.3,432.5 227.6,432.5 229.0,431.8 230.4,431.8 231.7,431.0 233.1,431.0 234.5,429.6 235.8,428.9 237.2,428.9 238.5,428.9 239.9,428.9 241.3,428.9 242.6,428.9 244.0,427.5 245.4,427.5 246.7,427.5 248.1,426.7 249.4,426.7 250.8,426.7 252.2,426.0 253.5,425.3 254.9,425.3 256.3,425.3 257.6,425.3 259.0,425.3 260.3,424.6 261.7,424.6 263.1,424.6 264.4,424.6 265.8,424.6 267.2,424.6 268.5,424.6 269.9,424.6 271.2,424.6 272.6,424.6 274.0,424.6 275.3,424.6 276.7,424.6 278.1,424.6 279.4,424.6 280.8,424.6 282.2,424.6 283.5,424.6 284.9,424.6 286.2,424.6 287.6,424.6 289.0,424.6 290.3,424.6 291.7,423.9 293.1,423.9 294.4,423.9 295.8,423.9 297.1,423.9 298.5,423.9 299.9,423.9 301.2,423.9 302.6,423.9 304.0,423.9 305.3,423.9 306.7,423.9 308.0,423.9 309.4,423.9 310.8,423.9 312.1,423.9 313.5,423.9 314.9,423.9 316.2,423.9 317.6,423.9 319.0,423.9 320.3,423.9 321.7,423.9 323.0,423.9 324.4,423.9 325.8,423.9 327.1,423.9 328.5,423.9 329.9,423.9 331.2,423.9 332.6,423.9 333.9,423.9 335.3,423.9 336.7,423.9 338.0,423.9 339.4,423.9 340.8,423.9 342.1,423.9 343.5,423.9 344.8,423.9 346.2,423.9 347.6,423.9 348.9,423.9 350.3,423.9 351.7,423.9 353.0,423.9 354.4,423.9 355.8,423.9 357.1,423.9 358.5,423.9 359.8,423.9 361.2,423.9 362.6,423.9 363.9,423.9 365.3,423.9 366.7,423.9 368.0,423.9 369.4,423.9 370.7,423.9 372.1,423.9 373.5,423.9 374.8,423.9 376.2,423.9 377.6,423.9 378.9,423.9 380.3,423.9 381.6,423.9 383.0,423.9 384.4,423.9 385.7,423.9 387.1,423.9 388.5,423.9 389.8,423.9 391.2,423.9 392.5,423.9 393.9,423.9 395.3,423.9 396.6,423.9 398.0,423.9" fill="none" stroke="#1677b8" stroke-width="1.8"/>
<polyline points="60.0,495.0 61.4,495.0 62.7,495.0 64.1,495.0 65.5,495.0 66.8,495.0 68.2,495.0 69.5,495.0 70.9,495.0 72.3,495.0 73.6,495.0 75.0,495.0 76.4,495.0 77.7,495.0 79.1,495.0 80.4,495.0 81.8,495.0 83.2,495.0 84.5,495.0 85.9,495.0 87.3,495.0 88.6,495.0 90.0,495.0 91.3,495.0 92.7,495.0 94.1,495.0 95.4,495.0 96.8,495.0 98.2,495.0 99.5,495.0 100.9,494.3 102.2,494.3 103.6,494.3 105.0,494.3 106.3,494.3 107.7,494.3 109.1,494.3 110.4,494.3 111.8,494.3 113.2,494.3 114.5,494.3 115.9,494.3 117.2,493.6 118.6,493.6 120.0,493.6 121.3,492.8 122.7,492.8 124.1,492.8 125.4,492.8 126.8,492.8 128.1,492.8 129.5,492.8 130.9,492.8 132.2,492.8 133.6,492.1 135.0,492.1 136.3,492.1 137.7,492.1 139.0,491.4 140.4,490.7 141.8,490.7 143.1,490.7 144.5,490.7 145.9,490.7 147.2,490.0 148.6,488.5 150.0,487.8 151.3,487.1 152.7,486.4 154.0,485.7 155.4,484.2 156.8,484.2 158.1,483.5 159.5,482.8 160.9,482.1 162.2,482.1 163.6,482.1 164.9,482.1 166.3,482.1 167.7,481.3 169.0,481.3 170.4,481.3 171.8,481.3 173.1,481.3 174.5,481.3 175.8,481.3 177.2,481.3 178.6,481.3 179.9,481.3 181.3,481.3 182.7,481.3 184.0,481.3 185.4,481.3 186.8,479.9 188.1,479.9 189.5,479.9 190.8,478.5 192.2,478.5 193.6,477.0 194.9,476.3 196.3,475.6 197.7,474.9 199.0,473.4 200.4,471.3 201.7,471.3 203.1,469.8 204.5,469.1 205.8,468.4 207.2,468.4 208.6,467.0 209.9,465.5 211.3,465.5 212.6,465.5 214.0,465.5 215.4,465.5 216.7,465.5 218.1,465.5 219.5,465.5 220.8,465.5 222.2,465.5 223.5,465.5 224.9,465.5 226.3,464.8 227.6,464.8 229.0,464.8 230.4,464.1 231.7,464.1 233.1,463.4 234.5,462.7 235.8,462.7 237.2,461.9 238.5,461.2 239.9,459.8 241.3,459.8 242.6,458.4 244.0,456.9 245.4,456.9 246.7,456.2 248.1,454.0 249.4,453.3 250.8,451.2 252.2,450.4 253.5,449.0 254.9,448.3 256.3,448.3 257.6,447.6 259.0,447.6 260.3,446.1 261.7,446.1 263.1,444.7 264.4,444.0 265.8,441.8 267.2,441.8 268.5,441.8 269.9,441.8 271.2,441.1 272.6,440.4 274.0,438.2 275.3,437.5 276.7,435.4 278.1,433.2 279.4,433.2 280.8,431.8 282.2,428.2 283.5,427.5 284.9,426.0 286.2,425.3 287.6,424.6 289.0,423.1 290.3,423.1 291.7,423.1 293.1,421.0 294.4,420.3 295.8,420.3 297.1,419.5 298.5,418.8 299.9,418.8 301.2,418.1 302.6,417.4 304.0,416.7 305.3,415.2 306.7,413.8 308.0,413.1 309.4,412.4 310.8,410.9 312.1,410.2 313.5,408.8 314.9,407.3 316.2,406.6 317.6,404.5 319.0,403.7 320.3,402.3 321.7,402.3 323.0,401.6 324.4,400.1 325.8,399.4 327.1,398.7 328.5,398.0 329.9,397.3 331.2,397.3 332.6,397.3 333.9,397.3 335.3,397.3 336.7,397.3 338.0,397.3 339.4,397.3 340.8,396.6 342.1,395.8 343.5,395.1 344.8,393.7 346.2,391.5 347.6,390.1 348.9,390.1 350.3,389.4 351.7,389.4 353.0,387.9 354.4,387.2 355.8,385.8 357.1,383.6 358.5,382.9 359.8,380.0 361.2,378.6 362.6,378.6 363.9,377.2 365.3,377.2 366.7,375.7 368.0,374.3 369.4,373.6 370.7,371.4 372.1,370.7 373.5,369.2 374.8,367.8 376.2,364.9 377.6,362.8 378.9,362.1 380.3,360.6 381.6,359.9 383.0,358.5 384.4,358.5 385.7,358.5 387.1,357.0 388.5,356.3 389.8,354.2 391.2,353.4 392.5,353.4 393.9,353.4 395.3,353.4 396.6,352.7 398.0,352.0" fill="none" stroke="#c35c20" stroke-width="1.8"/>
<text x="229.0" y="529" text-anchor="middle">Round</text>
<text x="426" y="337" class="panel">Splits · cumulative</text>
<path d="M465,495h338" stroke="#dce1e5"/>
<text x="459" y="499" text-anchor="end">0</text>
<text x="465" y="513" text-anchor="middle">0</text>
<path d="M465,423.5h338" stroke="#dce1e5"/>
<text x="459" y="427.5" text-anchor="end">40.5</text>
<text x="634.0" y="513" text-anchor="middle">124</text>
<path d="M465,352h338" stroke="#dce1e5"/>
<text x="459" y="356" text-anchor="end">81</text>
<text x="803" y="513" text-anchor="middle">248</text>
<polyline points="465.0,495.0 466.4,495.0 467.7,495.0 469.1,495.0 470.5,495.0 471.8,495.0 473.2,495.0 474.5,495.0 475.9,495.0 477.3,495.0 478.6,495.0 480.0,495.0 481.4,495.0 482.7,493.2 484.1,493.2 485.4,493.2 486.8,493.2 488.2,493.2 489.5,493.2 490.9,493.2 492.3,491.5 493.6,491.5 495.0,491.5 496.3,491.5 497.7,491.5 499.1,491.5 500.4,491.5 501.8,489.7 503.2,489.7 504.5,489.7 505.9,489.7 507.2,489.7 508.6,489.7 510.0,487.9 511.3,487.9 512.7,487.9 514.1,487.9 515.4,487.9 516.8,486.2 518.2,484.4 519.5,484.4 520.9,484.4 522.2,482.6 523.6,482.6 525.0,480.9 526.3,480.9 527.7,480.9 529.1,479.1 530.4,477.3 531.8,477.3 533.1,477.3 534.5,475.6 535.9,473.8 537.2,473.8 538.6,473.8 540.0,472.0 541.3,472.0 542.7,472.0 544.0,470.3 545.4,470.3 546.8,468.5 548.1,466.8 549.5,466.8 550.9,466.8 552.2,466.8 553.6,466.8 555.0,466.8 556.3,465.0 557.7,465.0 559.0,465.0 560.4,465.0 561.8,463.2 563.1,463.2 564.5,463.2 565.9,463.2 567.2,463.2 568.6,461.5 569.9,461.5 571.3,459.7 572.7,459.7 574.0,459.7 575.4,459.7 576.8,459.7 578.1,456.2 579.5,456.2 580.8,456.2 582.2,456.2 583.6,456.2 584.9,454.4 586.3,452.6 587.7,452.6 589.0,452.6 590.4,452.6 591.8,450.9 593.1,449.1 594.5,449.1 595.8,449.1 597.2,449.1 598.6,445.6 599.9,445.6 601.3,445.6 602.7,445.6 604.0,445.6 605.4,443.8 606.7,443.8 608.1,443.8 609.5,440.3 610.8,440.3 612.2,440.3 613.6,440.3 614.9,440.3 616.3,440.3 617.6,438.5 619.0,438.5 620.4,438.5 621.7,438.5 623.1,438.5 624.5,438.5 625.8,438.5 627.2,436.7 628.5,436.7 629.9,436.7 631.3,436.7 632.6,435.0 634.0,435.0 635.4,435.0 636.7,435.0 638.1,433.2 639.5,433.2 640.8,431.4 642.2,429.7 643.5,429.7 644.9,429.7 646.3,429.7 647.6,429.7 649.0,429.7 650.4,429.7 651.7,429.7 653.1,429.7 654.4,429.7 655.8,429.7 657.2,429.7 658.5,427.9 659.9,427.9 661.3,427.9 662.6,427.9 664.0,427.9 665.3,427.9 666.7,426.1 668.1,426.1 669.4,426.1 670.8,426.1 672.2,426.1 673.5,426.1 674.9,426.1 676.2,426.1 677.6,426.1 679.0,426.1 680.3,426.1 681.7,426.1 683.1,426.1 684.4,426.1 685.8,426.1 687.2,426.1 688.5,426.1 689.9,426.1 691.2,426.1 692.6,426.1 694.0,426.1 695.3,426.1 696.7,426.1 698.1,426.1 699.4,426.1 700.8,426.1 702.1,426.1 703.5,426.1 704.9,426.1 706.2,426.1 707.6,426.1 709.0,426.1 710.3,426.1 711.7,426.1 713.0,426.1 714.4,426.1 715.8,426.1 717.1,426.1 718.5,426.1 719.9,426.1 721.2,426.1 722.6,426.1 724.0,426.1 725.3,426.1 726.7,426.1 728.0,426.1 729.4,426.1 730.8,426.1 732.1,426.1 733.5,426.1 734.9,426.1 736.2,426.1 737.6,426.1 738.9,426.1 740.3,426.1 741.7,426.1 743.0,426.1 744.4,426.1 745.8,426.1 747.1,426.1 748.5,426.1 749.8,426.1 751.2,426.1 752.6,426.1 753.9,426.1 755.3,426.1 756.7,426.1 758.0,426.1 759.4,426.1 760.8,426.1 762.1,426.1 763.5,426.1 764.8,426.1 766.2,426.1 767.6,426.1 768.9,426.1 770.3,426.1 771.7,426.1 773.0,426.1 774.4,426.1 775.7,426.1 777.1,426.1 778.5,426.1 779.8,426.1 781.2,426.1 782.6,426.1 783.9,426.1 785.3,426.1 786.6,426.1 788.0,426.1 789.4,426.1 790.7,426.1 792.1,426.1 793.5,426.1 794.8,426.1 796.2,426.1 797.5,426.1 798.9,426.1 800.3,426.1 801.6,426.1 803.0,426.1" fill="none" stroke="#1677b8" stroke-width="1.8"/>
<polyline points="465.0,495.0 466.4,495.0 467.7,495.0 469.1,495.0 470.5,495.0 471.8,495.0 473.2,495.0 474.5,495.0 475.9,495.0 477.3,495.0 478.6,495.0 480.0,495.0 481.4,495.0 482.7,495.0 484.1,495.0 485.4,495.0 486.8,495.0 488.2,495.0 489.5,495.0 490.9,495.0 492.3,495.0 493.6,495.0 495.0,495.0 496.3,495.0 497.7,495.0 499.1,495.0 500.4,495.0 501.8,495.0 503.2,495.0 504.5,495.0 505.9,495.0 507.2,495.0 508.6,493.2 510.0,493.2 511.3,493.2 512.7,493.2 514.1,493.2 515.4,493.2 516.8,493.2 518.2,493.2 519.5,493.2 520.9,493.2 522.2,493.2 523.6,491.5 525.0,491.5 526.3,491.5 527.7,491.5 529.1,491.5 530.4,491.5 531.8,491.5 533.1,491.5 534.5,491.5 535.9,491.5 537.2,491.5 538.6,491.5 540.0,489.7 541.3,489.7 542.7,489.7 544.0,489.7 545.4,489.7 546.8,489.7 548.1,489.7 549.5,489.7 550.9,489.7 552.2,489.7 553.6,487.9 555.0,487.9 556.3,486.2 557.7,484.4 559.0,484.4 560.4,484.4 561.8,482.6 563.1,482.6 564.5,482.6 565.9,482.6 567.2,480.9 568.6,480.9 569.9,480.9 571.3,480.9 572.7,480.9 574.0,480.9 575.4,480.9 576.8,480.9 578.1,480.9 579.5,480.9 580.8,480.9 582.2,480.9 583.6,480.9 584.9,480.9 586.3,480.9 587.7,480.9 589.0,480.9 590.4,480.9 591.8,480.9 593.1,480.9 594.5,480.9 595.8,480.9 597.2,479.1 598.6,479.1 599.9,477.3 601.3,477.3 602.7,477.3 604.0,475.6 605.4,475.6 606.7,473.8 608.1,473.8 609.5,470.3 610.8,470.3 612.2,470.3 613.6,470.3 614.9,468.5 616.3,466.8 617.6,466.8 619.0,466.8 620.4,466.8 621.7,466.8 623.1,466.8 624.5,466.8 625.8,466.8 627.2,466.8 628.5,466.8 629.9,466.8 631.3,466.8 632.6,466.8 634.0,466.8 635.4,466.8 636.7,465.0 638.1,465.0 639.5,465.0 640.8,463.2 642.2,463.2 643.5,463.2 644.9,463.2 646.3,461.5 647.6,461.5 649.0,461.5 650.4,457.9 651.7,457.9 653.1,456.2 654.4,456.2 655.8,456.2 657.2,450.9 658.5,449.1 659.9,449.1 661.3,449.1 662.6,449.1 664.0,447.3 665.3,447.3 666.7,445.6 668.1,445.6 669.4,445.6 670.8,443.8 672.2,443.8 673.5,443.8 674.9,443.8 676.2,443.8 677.6,442.0 679.0,442.0 680.3,440.3 681.7,438.5 683.1,438.5 684.4,433.2 685.8,433.2 687.2,433.2 688.5,427.9 689.9,427.9 691.2,426.1 692.6,426.1 694.0,426.1 695.3,422.6 696.7,422.6 698.1,422.6 699.4,419.1 700.8,419.1 702.1,419.1 703.5,417.3 704.9,417.3 706.2,417.3 707.6,415.6 709.0,415.6 710.3,415.6 711.7,413.8 713.0,410.3 714.4,410.3 715.8,410.3 717.1,408.5 718.5,408.5 719.9,408.5 721.2,405.0 722.6,405.0 724.0,401.4 725.3,401.4 726.7,399.7 728.0,399.7 729.4,399.7 730.8,399.7 732.1,397.9 733.5,396.1 734.9,396.1 736.2,396.1 737.6,396.1 738.9,396.1 740.3,396.1 741.7,396.1 743.0,396.1 744.4,396.1 745.8,396.1 747.1,396.1 748.5,396.1 749.8,394.4 751.2,390.8 752.6,389.1 753.9,389.1 755.3,389.1 756.7,387.3 758.0,387.3 759.4,387.3 760.8,385.5 762.1,383.8 763.5,380.2 764.8,380.2 766.2,376.7 767.6,375.0 768.9,375.0 770.3,373.2 771.7,373.2 773.0,371.4 774.4,371.4 775.7,371.4 777.1,369.7 778.5,369.7 779.8,367.9 781.2,364.4 782.6,362.6 783.9,362.6 785.3,360.8 786.6,359.1 788.0,359.1 789.4,357.3 790.7,357.3 792.1,357.3 793.5,355.5 794.8,353.8 796.2,353.8 797.5,352.0 798.9,352.0 800.3,352.0 801.6,352.0 803.0,352.0" fill="none" stroke="#c35c20" stroke-width="1.8"/>
<text x="634.0" y="529" text-anchor="middle">Round</text>
<text x="831" y="337" class="panel">Deaths · cumulative</text>
<path d="M870,495h338" stroke="#dce1e5"/>
<text x="864" y="499" text-anchor="end">0</text>
<text x="870" y="513" text-anchor="middle">0</text>
<path d="M870,423.5h338" stroke="#dce1e5"/>
<text x="864" y="427.5" text-anchor="end">30</text>
<text x="1039.0" y="513" text-anchor="middle">124</text>
<path d="M870,352h338" stroke="#dce1e5"/>
<text x="864" y="356" text-anchor="end">60</text>
<text x="1208" y="513" text-anchor="middle">248</text>
<polyline points="870.0,495.0 871.4,495.0 872.7,495.0 874.1,495.0 875.5,495.0 876.8,495.0 878.2,495.0 879.5,495.0 880.9,495.0 882.3,495.0 883.6,495.0 885.0,495.0 886.4,495.0 887.7,495.0 889.1,495.0 890.4,495.0 891.8,495.0 893.2,495.0 894.5,492.6 895.9,492.6 897.3,492.6 898.6,492.6 900.0,492.6 901.3,492.6 902.7,492.6 904.1,492.6 905.4,492.6 906.8,492.6 908.2,492.6 909.5,492.6 910.9,492.6 912.2,492.6 913.6,492.6 915.0,492.6 916.3,492.6 917.7,492.6 919.1,487.9 920.4,487.9 921.8,487.9 923.2,485.5 924.5,485.5 925.9,485.5 927.2,485.5 928.6,483.1 930.0,483.1 931.3,483.1 932.7,483.1 934.1,483.1 935.4,483.1 936.8,483.1 938.1,480.7 939.5,480.7 940.9,478.3 942.2,475.9 943.6,475.9 945.0,475.9 946.3,475.9 947.7,475.9 949.0,475.9 950.4,475.9 951.8,468.8 953.1,466.4 954.5,466.4 955.9,466.4 957.2,466.4 958.6,466.4 960.0,466.4 961.3,466.4 962.7,466.4 964.0,466.4 965.4,466.4 966.8,466.4 968.1,466.4 969.5,466.4 970.9,466.4 972.2,464.0 973.6,464.0 974.9,461.6 976.3,461.6 977.7,461.6 979.0,461.6 980.4,461.6 981.8,461.6 983.1,461.6 984.5,459.2 985.8,459.2 987.2,459.2 988.6,459.2 989.9,459.2 991.3,456.9 992.7,454.5 994.0,452.1 995.4,452.1 996.8,452.1 998.1,449.7 999.5,447.3 1000.8,447.3 1002.2,447.3 1003.6,447.3 1004.9,447.3 1006.3,440.2 1007.7,437.8 1009.0,437.8 1010.4,437.8 1011.7,433.0 1013.1,433.0 1014.5,433.0 1015.8,430.6 1017.2,428.3 1018.6,425.9 1019.9,423.5 1021.3,423.5 1022.6,423.5 1024.0,421.1 1025.4,421.1 1026.7,418.7 1028.1,418.7 1029.5,418.7 1030.8,418.7 1032.2,418.7 1033.5,418.7 1034.9,418.7 1036.3,418.7 1037.6,418.7 1039.0,418.7 1040.4,418.7 1041.7,416.4 1043.1,416.4 1044.5,416.4 1045.8,416.4 1047.2,416.4 1048.5,416.4 1049.9,411.6 1051.3,411.6 1052.6,411.6 1054.0,411.6 1055.4,406.8 1056.7,406.8 1058.1,406.8 1059.4,406.8 1060.8,406.8 1062.2,406.8 1063.5,406.8 1064.9,406.8 1066.3,406.8 1067.6,406.8 1069.0,406.8 1070.3,406.8 1071.7,406.8 1073.1,406.8 1074.4,404.4 1075.8,404.4 1077.2,402.1 1078.5,402.1 1079.9,402.1 1081.2,402.1 1082.6,402.1 1084.0,402.1 1085.3,402.1 1086.7,402.1 1088.1,402.1 1089.4,402.1 1090.8,402.1 1092.2,402.1 1093.5,402.1 1094.9,402.1 1096.2,402.1 1097.6,402.1 1099.0,402.1 1100.3,402.1 1101.7,402.1 1103.1,402.1 1104.4,402.1 1105.8,402.1 1107.1,402.1 1108.5,402.1 1109.9,402.1 1111.2,402.1 1112.6,402.1 1114.0,402.1 1115.3,402.1 1116.7,402.1 1118.0,402.1 1119.4,402.1 1120.8,402.1 1122.1,402.1 1123.5,402.1 1124.9,402.1 1126.2,402.1 1127.6,402.1 1129.0,402.1 1130.3,402.1 1131.7,399.7 1133.0,399.7 1134.4,399.7 1135.8,399.7 1137.1,399.7 1138.5,399.7 1139.9,399.7 1141.2,399.7 1142.6,399.7 1143.9,399.7 1145.3,399.7 1146.7,399.7 1148.0,399.7 1149.4,399.7 1150.8,399.7 1152.1,399.7 1153.5,399.7 1154.8,399.7 1156.2,399.7 1157.6,399.7 1158.9,399.7 1160.3,399.7 1161.7,399.7 1163.0,399.7 1164.4,399.7 1165.8,399.7 1167.1,399.7 1168.5,399.7 1169.8,399.7 1171.2,399.7 1172.6,399.7 1173.9,399.7 1175.3,399.7 1176.7,399.7 1178.0,399.7 1179.4,399.7 1180.7,399.7 1182.1,399.7 1183.5,399.7 1184.8,399.7 1186.2,399.7 1187.6,399.7 1188.9,399.7 1190.3,399.7 1191.6,399.7 1193.0,399.7 1194.4,399.7 1195.7,399.7 1197.1,399.7 1198.5,399.7 1199.8,399.7 1201.2,399.7 1202.5,399.7 1203.9,399.7 1205.3,399.7 1206.6,399.7 1208.0,397.3" fill="none" stroke="#1677b8" stroke-width="1.8"/>
<polyline points="870.0,495.0 871.4,495.0 872.7,495.0 874.1,495.0 875.5,495.0 876.8,495.0 878.2,495.0 879.5,495.0 880.9,495.0 882.3,495.0 883.6,495.0 885.0,495.0 886.4,495.0 887.7,495.0 889.1,495.0 890.4,495.0 891.8,495.0 893.2,495.0 894.5,495.0 895.9,495.0 897.3,495.0 898.6,495.0 900.0,495.0 901.3,495.0 902.7,495.0 904.1,495.0 905.4,495.0 906.8,495.0 908.2,495.0 909.5,495.0 910.9,495.0 912.2,495.0 913.6,495.0 915.0,495.0 916.3,495.0 917.7,495.0 919.1,495.0 920.4,495.0 921.8,495.0 923.2,495.0 924.5,495.0 925.9,495.0 927.2,495.0 928.6,495.0 930.0,495.0 931.3,495.0 932.7,495.0 934.1,495.0 935.4,495.0 936.8,495.0 938.1,495.0 939.5,495.0 940.9,495.0 942.2,495.0 943.6,495.0 945.0,495.0 946.3,495.0 947.7,495.0 949.0,495.0 950.4,495.0 951.8,495.0 953.1,495.0 954.5,495.0 955.9,495.0 957.2,495.0 958.6,495.0 960.0,495.0 961.3,495.0 962.7,495.0 964.0,495.0 965.4,495.0 966.8,495.0 968.1,495.0 969.5,495.0 970.9,495.0 972.2,492.6 973.6,492.6 974.9,492.6 976.3,492.6 977.7,492.6 979.0,492.6 980.4,492.6 981.8,492.6 983.1,492.6 984.5,492.6 985.8,492.6 987.2,492.6 988.6,492.6 989.9,492.6 991.3,492.6 992.7,492.6 994.0,492.6 995.4,492.6 996.8,492.6 998.1,492.6 999.5,492.6 1000.8,492.6 1002.2,492.6 1003.6,492.6 1004.9,492.6 1006.3,487.9 1007.7,487.9 1009.0,487.9 1010.4,487.9 1011.7,485.5 1013.1,485.5 1014.5,485.5 1015.8,485.5 1017.2,485.5 1018.6,483.1 1019.9,483.1 1021.3,483.1 1022.6,483.1 1024.0,483.1 1025.4,483.1 1026.7,480.7 1028.1,480.7 1029.5,480.7 1030.8,480.7 1032.2,480.7 1033.5,480.7 1034.9,480.7 1036.3,480.7 1037.6,480.7 1039.0,480.7 1040.4,480.7 1041.7,480.7 1043.1,480.7 1044.5,480.7 1045.8,480.7 1047.2,480.7 1048.5,480.7 1049.9,480.7 1051.3,480.7 1052.6,480.7 1054.0,480.7 1055.4,480.7 1056.7,475.9 1058.1,475.9 1059.4,471.2 1060.8,471.2 1062.2,471.2 1063.5,471.2 1064.9,468.8 1066.3,468.8 1067.6,468.8 1069.0,468.8 1070.3,468.8 1071.7,468.8 1073.1,468.8 1074.4,466.4 1075.8,466.4 1077.2,464.0 1078.5,464.0 1079.9,464.0 1081.2,464.0 1082.6,464.0 1084.0,461.6 1085.3,461.6 1086.7,461.6 1088.1,461.6 1089.4,459.2 1090.8,456.9 1092.2,454.5 1093.5,454.5 1094.9,454.5 1096.2,454.5 1097.6,452.1 1099.0,452.1 1100.3,452.1 1101.7,449.7 1103.1,449.7 1104.4,444.9 1105.8,444.9 1107.1,444.9 1108.5,444.9 1109.9,440.2 1111.2,440.2 1112.6,440.2 1114.0,440.2 1115.3,437.8 1116.7,437.8 1118.0,437.8 1119.4,435.4 1120.8,433.0 1122.1,430.6 1123.5,428.3 1124.9,428.3 1126.2,425.9 1127.6,423.5 1129.0,423.5 1130.3,423.5 1131.7,421.1 1133.0,418.7 1134.4,418.7 1135.8,418.7 1137.1,418.7 1138.5,414.0 1139.9,414.0 1141.2,411.6 1142.6,411.6 1143.9,411.6 1145.3,411.6 1146.7,411.6 1148.0,411.6 1149.4,411.6 1150.8,411.6 1152.1,409.2 1153.5,409.2 1154.8,404.4 1156.2,402.1 1157.6,394.9 1158.9,392.5 1160.3,392.5 1161.7,392.5 1163.0,392.5 1164.4,392.5 1165.8,392.5 1167.1,392.5 1168.5,392.5 1169.8,392.5 1171.2,387.8 1172.6,385.4 1173.9,383.0 1175.3,383.0 1176.7,383.0 1178.0,383.0 1179.4,383.0 1180.7,383.0 1182.1,380.6 1183.5,375.8 1184.8,375.8 1186.2,375.8 1187.6,373.4 1188.9,371.1 1190.3,366.3 1191.6,361.5 1193.0,361.5 1194.4,361.5 1195.7,359.1 1197.1,359.1 1198.5,356.8 1199.8,356.8 1201.2,354.4 1202.5,354.4 1203.9,354.4 1205.3,354.4 1206.6,354.4 1208.0,352.0" fill="none" stroke="#c35c20" stroke-width="1.8"/>
<text x="1039.0" y="529" text-anchor="middle">Round</text>
<text x="21" y="552" class="panel">Opponent kills · attributed</text>
<path d="M60,710h338" stroke="#dce1e5"/>
<text x="54" y="714" text-anchor="end">0</text>
<text x="60" y="728" text-anchor="middle">0</text>
<path d="M60,638.5h338" stroke="#dce1e5"/>
<text x="54" y="642.5" text-anchor="end">5</text>
<text x="229.0" y="728" text-anchor="middle">124</text>
<path d="M60,567h338" stroke="#dce1e5"/>
<text x="54" y="571" text-anchor="end">10</text>
<text x="398" y="728" text-anchor="middle">248</text>
<polyline points="60.0,710.0 61.4,710.0 62.7,710.0 64.1,710.0 65.5,710.0 66.8,710.0 68.2,710.0 69.5,710.0 70.9,710.0 72.3,710.0 73.6,710.0 75.0,710.0 76.4,710.0 77.7,710.0 79.1,710.0 80.4,710.0 81.8,710.0 83.2,710.0 84.5,710.0 85.9,710.0 87.3,710.0 88.6,710.0 90.0,710.0 91.3,710.0 92.7,710.0 94.1,710.0 95.4,710.0 96.8,710.0 98.2,710.0 99.5,710.0 100.9,710.0 102.2,710.0 103.6,710.0 105.0,710.0 106.3,710.0 107.7,710.0 109.1,710.0 110.4,710.0 111.8,710.0 113.2,710.0 114.5,710.0 115.9,710.0 117.2,710.0 118.6,710.0 120.0,710.0 121.3,710.0 122.7,710.0 124.1,710.0 125.4,710.0 126.8,710.0 128.1,710.0 129.5,710.0 130.9,710.0 132.2,710.0 133.6,710.0 135.0,710.0 136.3,710.0 137.7,710.0 139.0,710.0 140.4,710.0 141.8,710.0 143.1,710.0 144.5,710.0 145.9,710.0 147.2,710.0 148.6,710.0 150.0,710.0 151.3,710.0 152.7,710.0 154.0,710.0 155.4,710.0 156.8,710.0 158.1,710.0 159.5,710.0 160.9,710.0 162.2,695.7 163.6,695.7 164.9,695.7 166.3,695.7 167.7,695.7 169.0,695.7 170.4,695.7 171.8,695.7 173.1,695.7 174.5,695.7 175.8,695.7 177.2,695.7 178.6,695.7 179.9,695.7 181.3,695.7 182.7,695.7 184.0,695.7 185.4,695.7 186.8,695.7 188.1,695.7 189.5,695.7 190.8,695.7 192.2,695.7 193.6,695.7 194.9,695.7 196.3,667.1 197.7,667.1 199.0,667.1 200.4,667.1 201.7,652.8 203.1,652.8 204.5,652.8 205.8,652.8 207.2,652.8 208.6,638.5 209.9,638.5 211.3,638.5 212.6,638.5 214.0,638.5 215.4,638.5 216.7,624.2 218.1,624.2 219.5,624.2 220.8,624.2 222.2,624.2 223.5,624.2 224.9,624.2 226.3,624.2 227.6,624.2 229.0,624.2 230.4,624.2 231.7,624.2 233.1,624.2 234.5,624.2 235.8,624.2 237.2,624.2 238.5,624.2 239.9,624.2 241.3,624.2 242.6,624.2 244.0,624.2 245.4,624.2 246.7,624.2 248.1,624.2 249.4,624.2 250.8,624.2 252.2,624.2 253.5,624.2 254.9,624.2 256.3,624.2 257.6,624.2 259.0,624.2 260.3,624.2 261.7,624.2 263.1,624.2 264.4,624.2 265.8,624.2 267.2,609.9 268.5,609.9 269.9,609.9 271.2,609.9 272.6,609.9 274.0,609.9 275.3,609.9 276.7,609.9 278.1,609.9 279.4,609.9 280.8,609.9 282.2,609.9 283.5,609.9 284.9,609.9 286.2,609.9 287.6,609.9 289.0,609.9 290.3,609.9 291.7,609.9 293.1,609.9 294.4,609.9 295.8,609.9 297.1,609.9 298.5,609.9 299.9,609.9 301.2,609.9 302.6,609.9 304.0,609.9 305.3,609.9 306.7,609.9 308.0,609.9 309.4,609.9 310.8,609.9 312.1,609.9 313.5,609.9 314.9,609.9 316.2,609.9 317.6,609.9 319.0,609.9 320.3,609.9 321.7,595.6 323.0,595.6 324.4,595.6 325.8,595.6 327.1,595.6 328.5,595.6 329.9,595.6 331.2,595.6 332.6,595.6 333.9,595.6 335.3,595.6 336.7,595.6 338.0,595.6 339.4,595.6 340.8,595.6 342.1,595.6 343.5,595.6 344.8,595.6 346.2,595.6 347.6,595.6 348.9,595.6 350.3,595.6 351.7,595.6 353.0,595.6 354.4,595.6 355.8,595.6 357.1,595.6 358.5,595.6 359.8,595.6 361.2,595.6 362.6,595.6 363.9,595.6 365.3,595.6 366.7,595.6 368.0,595.6 369.4,595.6 370.7,595.6 372.1,595.6 373.5,595.6 374.8,595.6 376.2,595.6 377.6,595.6 378.9,595.6 380.3,595.6 381.6,595.6 383.0,595.6 384.4,595.6 385.7,595.6 387.1,595.6 388.5,595.6 389.8,595.6 391.2,595.6 392.5,595.6 393.9,595.6 395.3,595.6 396.6,595.6 398.0,581.3" fill="none" stroke="#1677b8" stroke-width="1.8"/>
<polyline points="60.0,710.0 61.4,710.0 62.7,710.0 64.1,710.0 65.5,710.0 66.8,710.0 68.2,710.0 69.5,710.0 70.9,710.0 72.3,710.0 73.6,710.0 75.0,710.0 76.4,710.0 77.7,710.0 79.1,710.0 80.4,710.0 81.8,710.0 83.2,710.0 84.5,710.0 85.9,710.0 87.3,710.0 88.6,710.0 90.0,710.0 91.3,710.0 92.7,710.0 94.1,710.0 95.4,710.0 96.8,710.0 98.2,710.0 99.5,710.0 100.9,710.0 102.2,710.0 103.6,710.0 105.0,710.0 106.3,710.0 107.7,710.0 109.1,710.0 110.4,710.0 111.8,710.0 113.2,710.0 114.5,710.0 115.9,710.0 117.2,710.0 118.6,710.0 120.0,710.0 121.3,710.0 122.7,710.0 124.1,710.0 125.4,710.0 126.8,710.0 128.1,710.0 129.5,710.0 130.9,710.0 132.2,710.0 133.6,710.0 135.0,710.0 136.3,710.0 137.7,710.0 139.0,710.0 140.4,710.0 141.8,710.0 143.1,710.0 144.5,710.0 145.9,710.0 147.2,710.0 148.6,710.0 150.0,710.0 151.3,710.0 152.7,710.0 154.0,710.0 155.4,710.0 156.8,710.0 158.1,710.0 159.5,710.0 160.9,710.0 162.2,695.7 163.6,695.7 164.9,695.7 166.3,695.7 167.7,695.7 169.0,695.7 170.4,695.7 171.8,695.7 173.1,695.7 174.5,695.7 175.8,695.7 177.2,695.7 178.6,695.7 179.9,695.7 181.3,695.7 182.7,695.7 184.0,695.7 185.4,695.7 186.8,695.7 188.1,695.7 189.5,695.7 190.8,695.7 192.2,695.7 193.6,695.7 194.9,695.7 196.3,667.1 197.7,667.1 199.0,667.1 200.4,667.1 201.7,652.8 203.1,652.8 204.5,652.8 205.8,652.8 207.2,638.5 208.6,624.2 209.9,624.2 211.3,624.2 212.6,624.2 214.0,624.2 215.4,624.2 216.7,609.9 218.1,609.9 219.5,609.9 220.8,609.9 222.2,609.9 223.5,609.9 224.9,609.9 226.3,609.9 227.6,609.9 229.0,609.9 230.4,609.9 231.7,609.9 233.1,609.9 234.5,609.9 235.8,609.9 237.2,609.9 238.5,609.9 239.9,609.9 241.3,609.9 242.6,609.9 244.0,609.9 245.4,609.9 246.7,609.9 248.1,609.9 249.4,609.9 250.8,609.9 252.2,609.9 253.5,609.9 254.9,609.9 256.3,609.9 257.6,609.9 259.0,609.9 260.3,609.9 261.7,609.9 263.1,609.9 264.4,609.9 265.8,609.9 267.2,595.6 268.5,595.6 269.9,595.6 271.2,595.6 272.6,595.6 274.0,595.6 275.3,595.6 276.7,595.6 278.1,595.6 279.4,595.6 280.8,595.6 282.2,595.6 283.5,595.6 284.9,595.6 286.2,595.6 287.6,595.6 289.0,595.6 290.3,595.6 291.7,595.6 293.1,595.6 294.4,595.6 295.8,595.6 297.1,595.6 298.5,595.6 299.9,595.6 301.2,595.6 302.6,595.6 304.0,595.6 305.3,595.6 306.7,595.6 308.0,595.6 309.4,595.6 310.8,595.6 312.1,595.6 313.5,595.6 314.9,595.6 316.2,595.6 317.6,595.6 319.0,595.6 320.3,595.6 321.7,581.3 323.0,581.3 324.4,581.3 325.8,581.3 327.1,581.3 328.5,581.3 329.9,581.3 331.2,581.3 332.6,581.3 333.9,581.3 335.3,581.3 336.7,581.3 338.0,581.3 339.4,581.3 340.8,581.3 342.1,581.3 343.5,581.3 344.8,581.3 346.2,581.3 347.6,581.3 348.9,581.3 350.3,581.3 351.7,581.3 353.0,581.3 354.4,581.3 355.8,581.3 357.1,581.3 358.5,581.3 359.8,581.3 361.2,581.3 362.6,581.3 363.9,581.3 365.3,581.3 366.7,581.3 368.0,581.3 369.4,581.3 370.7,581.3 372.1,581.3 373.5,581.3 374.8,581.3 376.2,581.3 377.6,581.3 378.9,581.3 380.3,581.3 381.6,581.3 383.0,581.3 384.4,581.3 385.7,581.3 387.1,581.3 388.5,581.3 389.8,581.3 391.2,581.3 392.5,581.3 393.9,581.3 395.3,581.3 396.6,581.3 398.0,567.0" fill="none" stroke="#c35c20" stroke-width="1.8"/>
<text x="229.0" y="744" text-anchor="middle">Round</text>
<text x="426" y="552" class="panel">Deaths to opponent · attributed</text>
<path d="M465,710h338" stroke="#dce1e5"/>
<text x="459" y="714" text-anchor="end">0</text>
<text x="465" y="728" text-anchor="middle">0</text>
<path d="M465,638.5h338" stroke="#dce1e5"/>
<text x="459" y="642.5" text-anchor="end">5</text>
<text x="634.0" y="728" text-anchor="middle">124</text>
<path d="M465,567h338" stroke="#dce1e5"/>
<text x="459" y="571" text-anchor="end">10</text>
<text x="803" y="728" text-anchor="middle">248</text>
<polyline points="465.0,710.0 466.4,710.0 467.7,710.0 469.1,710.0 470.5,710.0 471.8,710.0 473.2,710.0 474.5,710.0 475.9,710.0 477.3,710.0 478.6,710.0 480.0,710.0 481.4,710.0 482.7,710.0 484.1,710.0 485.4,710.0 486.8,710.0 488.2,710.0 489.5,710.0 490.9,710.0 492.3,710.0 493.6,710.0 495.0,710.0 496.3,710.0 497.7,710.0 499.1,710.0 500.4,710.0 501.8,710.0 503.2,710.0 504.5,710.0 505.9,710.0 507.2,710.0 508.6,710.0 510.0,710.0 511.3,710.0 512.7,710.0 514.1,710.0 515.4,710.0 516.8,710.0 518.2,710.0 519.5,710.0 520.9,710.0 522.2,710.0 523.6,710.0 525.0,710.0 526.3,710.0 527.7,710.0 529.1,710.0 530.4,710.0 531.8,710.0 533.1,710.0 534.5,710.0 535.9,710.0 537.2,710.0 538.6,710.0 540.0,710.0 541.3,710.0 542.7,710.0 544.0,710.0 545.4,710.0 546.8,710.0 548.1,710.0 549.5,710.0 550.9,710.0 552.2,710.0 553.6,710.0 555.0,710.0 556.3,710.0 557.7,710.0 559.0,710.0 560.4,710.0 561.8,710.0 563.1,710.0 564.5,710.0 565.9,710.0 567.2,695.7 568.6,695.7 569.9,695.7 571.3,695.7 572.7,695.7 574.0,695.7 575.4,695.7 576.8,695.7 578.1,695.7 579.5,695.7 580.8,695.7 582.2,695.7 583.6,695.7 584.9,695.7 586.3,695.7 587.7,695.7 589.0,695.7 590.4,695.7 591.8,695.7 593.1,695.7 594.5,695.7 595.8,695.7 597.2,695.7 598.6,695.7 599.9,695.7 601.3,667.1 602.7,667.1 604.0,667.1 605.4,667.1 606.7,652.8 608.1,652.8 609.5,652.8 610.8,652.8 612.2,638.5 613.6,624.2 614.9,624.2 616.3,624.2 617.6,624.2 619.0,624.2 620.4,624.2 621.7,609.9 623.1,609.9 624.5,609.9 625.8,609.9 627.2,609.9 628.5,609.9 629.9,609.9 631.3,609.9 632.6,609.9 634.0,609.9 635.4,609.9 636.7,609.9 638.1,609.9 639.5,609.9 640.8,609.9 642.2,609.9 643.5,609.9 644.9,609.9 646.3,609.9 647.6,609.9 649.0,609.9 650.4,609.9 651.7,609.9 653.1,609.9 654.4,609.9 655.8,609.9 657.2,609.9 658.5,609.9 659.9,609.9 661.3,609.9 662.6,609.9 664.0,609.9 665.3,609.9 666.7,609.9 668.1,609.9 669.4,609.9 670.8,609.9 672.2,595.6 673.5,595.6 674.9,595.6 676.2,595.6 677.6,595.6 679.0,595.6 680.3,595.6 681.7,595.6 683.1,595.6 684.4,595.6 685.8,595.6 687.2,595.6 688.5,595.6 689.9,595.6 691.2,595.6 692.6,595.6 694.0,595.6 695.3,595.6 696.7,595.6 698.1,595.6 699.4,595.6 700.8,595.6 702.1,595.6 703.5,595.6 704.9,595.6 706.2,595.6 707.6,595.6 709.0,595.6 710.3,595.6 711.7,595.6 713.0,595.6 714.4,595.6 715.8,595.6 717.1,595.6 718.5,595.6 719.9,595.6 721.2,595.6 722.6,595.6 724.0,595.6 725.3,595.6 726.7,581.3 728.0,581.3 729.4,581.3 730.8,581.3 732.1,581.3 733.5,581.3 734.9,581.3 736.2,581.3 737.6,581.3 738.9,581.3 740.3,581.3 741.7,581.3 743.0,581.3 744.4,581.3 745.8,581.3 747.1,581.3 748.5,581.3 749.8,581.3 751.2,581.3 752.6,581.3 753.9,581.3 755.3,581.3 756.7,581.3 758.0,581.3 759.4,581.3 760.8,581.3 762.1,581.3 763.5,581.3 764.8,581.3 766.2,581.3 767.6,581.3 768.9,581.3 770.3,581.3 771.7,581.3 773.0,581.3 774.4,581.3 775.7,581.3 777.1,581.3 778.5,581.3 779.8,581.3 781.2,581.3 782.6,581.3 783.9,581.3 785.3,581.3 786.6,581.3 788.0,581.3 789.4,581.3 790.7,581.3 792.1,581.3 793.5,581.3 794.8,581.3 796.2,581.3 797.5,581.3 798.9,581.3 800.3,581.3 801.6,581.3 803.0,567.0" fill="none" stroke="#1677b8" stroke-width="1.8"/>
<polyline points="465.0,710.0 466.4,710.0 467.7,710.0 469.1,710.0 470.5,710.0 471.8,710.0 473.2,710.0 474.5,710.0 475.9,710.0 477.3,710.0 478.6,710.0 480.0,710.0 481.4,710.0 482.7,710.0 484.1,710.0 485.4,710.0 486.8,710.0 488.2,710.0 489.5,710.0 490.9,710.0 492.3,710.0 493.6,710.0 495.0,710.0 496.3,710.0 497.7,710.0 499.1,710.0 500.4,710.0 501.8,710.0 503.2,710.0 504.5,710.0 505.9,710.0 507.2,710.0 508.6,710.0 510.0,710.0 511.3,710.0 512.7,710.0 514.1,710.0 515.4,710.0 516.8,710.0 518.2,710.0 519.5,710.0 520.9,710.0 522.2,710.0 523.6,710.0 525.0,710.0 526.3,710.0 527.7,710.0 529.1,710.0 530.4,710.0 531.8,710.0 533.1,710.0 534.5,710.0 535.9,710.0 537.2,710.0 538.6,710.0 540.0,710.0 541.3,710.0 542.7,710.0 544.0,710.0 545.4,710.0 546.8,710.0 548.1,710.0 549.5,710.0 550.9,710.0 552.2,710.0 553.6,710.0 555.0,710.0 556.3,710.0 557.7,710.0 559.0,710.0 560.4,710.0 561.8,710.0 563.1,710.0 564.5,710.0 565.9,710.0 567.2,695.7 568.6,695.7 569.9,695.7 571.3,695.7 572.7,695.7 574.0,695.7 575.4,695.7 576.8,695.7 578.1,695.7 579.5,695.7 580.8,695.7 582.2,695.7 583.6,695.7 584.9,695.7 586.3,695.7 587.7,695.7 589.0,695.7 590.4,695.7 591.8,695.7 593.1,695.7 594.5,695.7 595.8,695.7 597.2,695.7 598.6,695.7 599.9,695.7 601.3,667.1 602.7,667.1 604.0,667.1 605.4,667.1 606.7,652.8 608.1,652.8 609.5,652.8 610.8,652.8 612.2,652.8 613.6,638.5 614.9,638.5 616.3,638.5 617.6,638.5 619.0,638.5 620.4,638.5 621.7,624.2 623.1,624.2 624.5,624.2 625.8,624.2 627.2,624.2 628.5,624.2 629.9,624.2 631.3,624.2 632.6,624.2 634.0,624.2 635.4,624.2 636.7,624.2 638.1,624.2 639.5,624.2 640.8,624.2 642.2,624.2 643.5,624.2 644.9,624.2 646.3,624.2 647.6,624.2 649.0,624.2 650.4,624.2 651.7,624.2 653.1,624.2 654.4,624.2 655.8,624.2 657.2,624.2 658.5,624.2 659.9,624.2 661.3,624.2 662.6,624.2 664.0,624.2 665.3,624.2 666.7,624.2 668.1,624.2 669.4,624.2 670.8,624.2 672.2,609.9 673.5,609.9 674.9,609.9 676.2,609.9 677.6,609.9 679.0,609.9 680.3,609.9 681.7,609.9 683.1,609.9 684.4,609.9 685.8,609.9 687.2,609.9 688.5,609.9 689.9,609.9 691.2,609.9 692.6,609.9 694.0,609.9 695.3,609.9 696.7,609.9 698.1,609.9 699.4,609.9 700.8,609.9 702.1,609.9 703.5,609.9 704.9,609.9 706.2,609.9 707.6,609.9 709.0,609.9 710.3,609.9 711.7,609.9 713.0,609.9 714.4,609.9 715.8,609.9 717.1,609.9 718.5,609.9 719.9,609.9 721.2,609.9 722.6,609.9 724.0,609.9 725.3,609.9 726.7,595.6 728.0,595.6 729.4,595.6 730.8,595.6 732.1,595.6 733.5,595.6 734.9,595.6 736.2,595.6 737.6,595.6 738.9,595.6 740.3,595.6 741.7,595.6 743.0,595.6 744.4,595.6 745.8,595.6 747.1,595.6 748.5,595.6 749.8,595.6 751.2,595.6 752.6,595.6 753.9,595.6 755.3,595.6 756.7,595.6 758.0,595.6 759.4,595.6 760.8,595.6 762.1,595.6 763.5,595.6 764.8,595.6 766.2,595.6 767.6,595.6 768.9,595.6 770.3,595.6 771.7,595.6 773.0,595.6 774.4,595.6 775.7,595.6 777.1,595.6 778.5,595.6 779.8,595.6 781.2,595.6 782.6,595.6 783.9,595.6 785.3,595.6 786.6,595.6 788.0,595.6 789.4,595.6 790.7,595.6 792.1,595.6 793.5,595.6 794.8,595.6 796.2,595.6 797.5,595.6 798.9,595.6 800.3,595.6 801.6,595.6 803.0,581.3" fill="none" stroke="#c35c20" stroke-width="1.8"/>
<text x="634.0" y="744" text-anchor="middle">Round</text>
<text x="831" y="552" class="panel">Friendly collision deaths</text>
<path d="M870,710h338" stroke="#dce1e5"/>
<text x="864" y="714" text-anchor="end">0</text>
<text x="870" y="728" text-anchor="middle">0</text>
<path d="M870,638.5h338" stroke="#dce1e5"/>
<text x="864" y="642.5" text-anchor="end">11</text>
<text x="1039.0" y="728" text-anchor="middle">124</text>
<path d="M870,567h338" stroke="#dce1e5"/>
<text x="864" y="571" text-anchor="end">22</text>
<text x="1208" y="728" text-anchor="middle">248</text>
<polyline points="870.0,710.0 871.4,710.0 872.7,710.0 874.1,710.0 875.5,710.0 876.8,710.0 878.2,710.0 879.5,710.0 880.9,710.0 882.3,710.0 883.6,710.0 885.0,710.0 886.4,710.0 887.7,710.0 889.1,710.0 890.4,710.0 891.8,710.0 893.2,710.0 894.5,710.0 895.9,710.0 897.3,710.0 898.6,710.0 900.0,710.0 901.3,710.0 902.7,710.0 904.1,710.0 905.4,710.0 906.8,710.0 908.2,710.0 909.5,710.0 910.9,710.0 912.2,710.0 913.6,710.0 915.0,710.0 916.3,710.0 917.7,710.0 919.1,697.0 920.4,697.0 921.8,697.0 923.2,697.0 924.5,697.0 925.9,697.0 927.2,697.0 928.6,690.5 930.0,690.5 931.3,690.5 932.7,690.5 934.1,690.5 935.4,690.5 936.8,690.5 938.1,690.5 939.5,690.5 940.9,690.5 942.2,690.5 943.6,690.5 945.0,690.5 946.3,690.5 947.7,690.5 949.0,690.5 950.4,690.5 951.8,677.5 953.1,677.5 954.5,677.5 955.9,677.5 957.2,677.5 958.6,677.5 960.0,677.5 961.3,677.5 962.7,677.5 964.0,677.5 965.4,677.5 966.8,677.5 968.1,677.5 969.5,677.5 970.9,677.5 972.2,677.5 973.6,677.5 974.9,677.5 976.3,677.5 977.7,677.5 979.0,677.5 980.4,677.5 981.8,677.5 983.1,677.5 984.5,677.5 985.8,677.5 987.2,677.5 988.6,677.5 989.9,677.5 991.3,671.0 992.7,664.5 994.0,658.0 995.4,658.0 996.8,658.0 998.1,658.0 999.5,658.0 1000.8,658.0 1002.2,658.0 1003.6,658.0 1004.9,658.0 1006.3,658.0 1007.7,658.0 1009.0,658.0 1010.4,658.0 1011.7,658.0 1013.1,658.0 1014.5,658.0 1015.8,651.5 1017.2,651.5 1018.6,651.5 1019.9,651.5 1021.3,651.5 1022.6,651.5 1024.0,651.5 1025.4,651.5 1026.7,651.5 1028.1,651.5 1029.5,651.5 1030.8,651.5 1032.2,651.5 1033.5,651.5 1034.9,651.5 1036.3,651.5 1037.6,651.5 1039.0,651.5 1040.4,651.5 1041.7,645.0 1043.1,645.0 1044.5,645.0 1045.8,645.0 1047.2,645.0 1048.5,645.0 1049.9,632.0 1051.3,632.0 1052.6,632.0 1054.0,632.0 1055.4,619.0 1056.7,619.0 1058.1,619.0 1059.4,619.0 1060.8,619.0 1062.2,619.0 1063.5,619.0 1064.9,619.0 1066.3,619.0 1067.6,619.0 1069.0,619.0 1070.3,619.0 1071.7,619.0 1073.1,619.0 1074.4,619.0 1075.8,619.0 1077.2,619.0 1078.5,619.0 1079.9,619.0 1081.2,619.0 1082.6,619.0 1084.0,619.0 1085.3,619.0 1086.7,619.0 1088.1,619.0 1089.4,619.0 1090.8,619.0 1092.2,619.0 1093.5,619.0 1094.9,619.0 1096.2,619.0 1097.6,619.0 1099.0,619.0 1100.3,619.0 1101.7,619.0 1103.1,619.0 1104.4,619.0 1105.8,619.0 1107.1,619.0 1108.5,619.0 1109.9,619.0 1111.2,619.0 1112.6,619.0 1114.0,619.0 1115.3,619.0 1116.7,619.0 1118.0,619.0 1119.4,619.0 1120.8,619.0 1122.1,619.0 1123.5,619.0 1124.9,619.0 1126.2,619.0 1127.6,619.0 1129.0,619.0 1130.3,619.0 1131.7,619.0 1133.0,619.0 1134.4,619.0 1135.8,619.0 1137.1,619.0 1138.5,619.0 1139.9,619.0 1141.2,619.0 1142.6,619.0 1143.9,619.0 1145.3,619.0 1146.7,619.0 1148.0,619.0 1149.4,619.0 1150.8,619.0 1152.1,619.0 1153.5,619.0 1154.8,619.0 1156.2,619.0 1157.6,619.0 1158.9,619.0 1160.3,619.0 1161.7,619.0 1163.0,619.0 1164.4,619.0 1165.8,619.0 1167.1,619.0 1168.5,619.0 1169.8,619.0 1171.2,619.0 1172.6,619.0 1173.9,619.0 1175.3,619.0 1176.7,619.0 1178.0,619.0 1179.4,619.0 1180.7,619.0 1182.1,619.0 1183.5,619.0 1184.8,619.0 1186.2,619.0 1187.6,619.0 1188.9,619.0 1190.3,619.0 1191.6,619.0 1193.0,619.0 1194.4,619.0 1195.7,619.0 1197.1,619.0 1198.5,619.0 1199.8,619.0 1201.2,619.0 1202.5,619.0 1203.9,619.0 1205.3,619.0 1206.6,619.0 1208.0,619.0" fill="none" stroke="#1677b8" stroke-width="1.8"/>
<polyline points="870.0,710.0 871.4,710.0 872.7,710.0 874.1,710.0 875.5,710.0 876.8,710.0 878.2,710.0 879.5,710.0 880.9,710.0 882.3,710.0 883.6,710.0 885.0,710.0 886.4,710.0 887.7,710.0 889.1,710.0 890.4,710.0 891.8,710.0 893.2,710.0 894.5,710.0 895.9,710.0 897.3,710.0 898.6,710.0 900.0,710.0 901.3,710.0 902.7,710.0 904.1,710.0 905.4,710.0 906.8,710.0 908.2,710.0 909.5,710.0 910.9,710.0 912.2,710.0 913.6,710.0 915.0,710.0 916.3,710.0 917.7,710.0 919.1,710.0 920.4,710.0 921.8,710.0 923.2,710.0 924.5,710.0 925.9,710.0 927.2,710.0 928.6,710.0 930.0,710.0 931.3,710.0 932.7,710.0 934.1,710.0 935.4,710.0 936.8,710.0 938.1,710.0 939.5,710.0 940.9,710.0 942.2,710.0 943.6,710.0 945.0,710.0 946.3,710.0 947.7,710.0 949.0,710.0 950.4,710.0 951.8,710.0 953.1,710.0 954.5,710.0 955.9,710.0 957.2,710.0 958.6,710.0 960.0,710.0 961.3,710.0 962.7,710.0 964.0,710.0 965.4,710.0 966.8,710.0 968.1,710.0 969.5,710.0 970.9,710.0 972.2,710.0 973.6,710.0 974.9,710.0 976.3,710.0 977.7,710.0 979.0,710.0 980.4,710.0 981.8,710.0 983.1,710.0 984.5,710.0 985.8,710.0 987.2,710.0 988.6,710.0 989.9,710.0 991.3,710.0 992.7,710.0 994.0,710.0 995.4,710.0 996.8,710.0 998.1,710.0 999.5,710.0 1000.8,710.0 1002.2,710.0 1003.6,710.0 1004.9,710.0 1006.3,710.0 1007.7,710.0 1009.0,710.0 1010.4,710.0 1011.7,710.0 1013.1,710.0 1014.5,710.0 1015.8,710.0 1017.2,710.0 1018.6,710.0 1019.9,710.0 1021.3,710.0 1022.6,710.0 1024.0,710.0 1025.4,710.0 1026.7,710.0 1028.1,710.0 1029.5,710.0 1030.8,710.0 1032.2,710.0 1033.5,710.0 1034.9,710.0 1036.3,710.0 1037.6,710.0 1039.0,710.0 1040.4,710.0 1041.7,710.0 1043.1,710.0 1044.5,710.0 1045.8,710.0 1047.2,710.0 1048.5,710.0 1049.9,710.0 1051.3,710.0 1052.6,710.0 1054.0,710.0 1055.4,710.0 1056.7,710.0 1058.1,710.0 1059.4,697.0 1060.8,697.0 1062.2,697.0 1063.5,697.0 1064.9,690.5 1066.3,690.5 1067.6,690.5 1069.0,690.5 1070.3,690.5 1071.7,690.5 1073.1,690.5 1074.4,690.5 1075.8,690.5 1077.2,690.5 1078.5,690.5 1079.9,690.5 1081.2,690.5 1082.6,690.5 1084.0,684.0 1085.3,684.0 1086.7,684.0 1088.1,684.0 1089.4,684.0 1090.8,677.5 1092.2,677.5 1093.5,677.5 1094.9,677.5 1096.2,677.5 1097.6,677.5 1099.0,677.5 1100.3,677.5 1101.7,677.5 1103.1,677.5 1104.4,664.5 1105.8,664.5 1107.1,664.5 1108.5,664.5 1109.9,651.5 1111.2,651.5 1112.6,651.5 1114.0,651.5 1115.3,651.5 1116.7,651.5 1118.0,651.5 1119.4,651.5 1120.8,645.0 1122.1,638.5 1123.5,638.5 1124.9,638.5 1126.2,632.0 1127.6,632.0 1129.0,632.0 1130.3,632.0 1131.7,632.0 1133.0,632.0 1134.4,632.0 1135.8,632.0 1137.1,632.0 1138.5,619.0 1139.9,619.0 1141.2,612.5 1142.6,612.5 1143.9,612.5 1145.3,612.5 1146.7,612.5 1148.0,612.5 1149.4,612.5 1150.8,612.5 1152.1,612.5 1153.5,612.5 1154.8,599.5 1156.2,593.0 1157.6,593.0 1158.9,586.5 1160.3,586.5 1161.7,586.5 1163.0,586.5 1164.4,586.5 1165.8,586.5 1167.1,586.5 1168.5,586.5 1169.8,586.5 1171.2,586.5 1172.6,586.5 1173.9,586.5 1175.3,586.5 1176.7,586.5 1178.0,586.5 1179.4,586.5 1180.7,586.5 1182.1,586.5 1183.5,586.5 1184.8,586.5 1186.2,586.5 1187.6,580.0 1188.9,580.0 1190.3,580.0 1191.6,573.5 1193.0,573.5 1194.4,573.5 1195.7,573.5 1197.1,573.5 1198.5,573.5 1199.8,573.5 1201.2,567.0 1202.5,567.0 1203.9,567.0 1205.3,567.0 1206.6,567.0 1208.0,567.0" fill="none" stroke="#c35c20" stroke-width="1.8"/>
<text x="1039.0" y="744" text-anchor="middle">Round</text>
<text x="21" y="767" class="panel">Self-collision deaths</text>
<path d="M60,925h338" stroke="#dce1e5"/>
<text x="54" y="929" text-anchor="end">0</text>
<text x="60" y="943" text-anchor="middle">0</text>
<path d="M60,853.5h338" stroke="#dce1e5"/>
<text x="54" y="857.5" text-anchor="end">6</text>
<text x="229.0" y="943" text-anchor="middle">124</text>
<path d="M60,782h338" stroke="#dce1e5"/>
<text x="54" y="786" text-anchor="end">12</text>
<text x="398" y="943" text-anchor="middle">248</text>
<polyline points="60.0,925.0 61.4,925.0 62.7,925.0 64.1,925.0 65.5,925.0 66.8,925.0 68.2,925.0 69.5,925.0 70.9,925.0 72.3,925.0 73.6,925.0 75.0,925.0 76.4,925.0 77.7,925.0 79.1,925.0 80.4,925.0 81.8,925.0 83.2,925.0 84.5,925.0 85.9,925.0 87.3,925.0 88.6,925.0 90.0,925.0 91.3,925.0 92.7,925.0 94.1,925.0 95.4,925.0 96.8,925.0 98.2,925.0 99.5,925.0 100.9,925.0 102.2,925.0 103.6,925.0 105.0,925.0 106.3,925.0 107.7,925.0 109.1,925.0 110.4,925.0 111.8,925.0 113.2,913.1 114.5,913.1 115.9,913.1 117.2,913.1 118.6,913.1 120.0,913.1 121.3,913.1 122.7,913.1 124.1,913.1 125.4,913.1 126.8,913.1 128.1,913.1 129.5,913.1 130.9,913.1 132.2,913.1 133.6,913.1 135.0,913.1 136.3,913.1 137.7,913.1 139.0,913.1 140.4,913.1 141.8,913.1 143.1,913.1 144.5,913.1 145.9,913.1 147.2,913.1 148.6,913.1 150.0,913.1 151.3,913.1 152.7,913.1 154.0,913.1 155.4,913.1 156.8,913.1 158.1,913.1 159.5,913.1 160.9,913.1 162.2,913.1 163.6,913.1 164.9,913.1 166.3,913.1 167.7,913.1 169.0,913.1 170.4,913.1 171.8,913.1 173.1,913.1 174.5,901.2 175.8,901.2 177.2,901.2 178.6,901.2 179.9,901.2 181.3,901.2 182.7,901.2 184.0,901.2 185.4,901.2 186.8,901.2 188.1,889.2 189.5,889.2 190.8,889.2 192.2,889.2 193.6,889.2 194.9,889.2 196.3,889.2 197.7,877.3 199.0,877.3 200.4,877.3 201.7,877.3 203.1,877.3 204.5,877.3 205.8,877.3 207.2,877.3 208.6,877.3 209.9,877.3 211.3,877.3 212.6,877.3 214.0,877.3 215.4,877.3 216.7,877.3 218.1,877.3 219.5,877.3 220.8,877.3 222.2,877.3 223.5,877.3 224.9,877.3 226.3,877.3 227.6,877.3 229.0,877.3 230.4,877.3 231.7,877.3 233.1,877.3 234.5,877.3 235.8,877.3 237.2,877.3 238.5,877.3 239.9,877.3 241.3,877.3 242.6,877.3 244.0,877.3 245.4,877.3 246.7,877.3 248.1,877.3 249.4,877.3 250.8,877.3 252.2,877.3 253.5,877.3 254.9,877.3 256.3,877.3 257.6,877.3 259.0,877.3 260.3,877.3 261.7,877.3 263.1,877.3 264.4,877.3 265.8,877.3 267.2,877.3 268.5,877.3 269.9,877.3 271.2,877.3 272.6,877.3 274.0,877.3 275.3,877.3 276.7,877.3 278.1,877.3 279.4,877.3 280.8,877.3 282.2,877.3 283.5,877.3 284.9,877.3 286.2,877.3 287.6,877.3 289.0,877.3 290.3,877.3 291.7,877.3 293.1,877.3 294.4,877.3 295.8,877.3 297.1,877.3 298.5,877.3 299.9,877.3 301.2,877.3 302.6,877.3 304.0,877.3 305.3,877.3 306.7,877.3 308.0,877.3 309.4,877.3 310.8,877.3 312.1,877.3 313.5,877.3 314.9,877.3 316.2,877.3 317.6,877.3 319.0,877.3 320.3,877.3 321.7,877.3 323.0,877.3 324.4,877.3 325.8,877.3 327.1,877.3 328.5,877.3 329.9,877.3 331.2,877.3 332.6,877.3 333.9,877.3 335.3,877.3 336.7,877.3 338.0,877.3 339.4,877.3 340.8,877.3 342.1,877.3 343.5,877.3 344.8,877.3 346.2,877.3 347.6,877.3 348.9,877.3 350.3,877.3 351.7,877.3 353.0,877.3 354.4,877.3 355.8,877.3 357.1,877.3 358.5,877.3 359.8,877.3 361.2,877.3 362.6,877.3 363.9,877.3 365.3,877.3 366.7,877.3 368.0,877.3 369.4,877.3 370.7,877.3 372.1,877.3 373.5,877.3 374.8,877.3 376.2,877.3 377.6,877.3 378.9,877.3 380.3,877.3 381.6,877.3 383.0,877.3 384.4,877.3 385.7,877.3 387.1,877.3 388.5,877.3 389.8,877.3 391.2,877.3 392.5,877.3 393.9,877.3 395.3,877.3 396.6,877.3 398.0,877.3" fill="none" stroke="#1677b8" stroke-width="1.8"/>
<polyline points="60.0,925.0 61.4,925.0 62.7,925.0 64.1,925.0 65.5,925.0 66.8,925.0 68.2,925.0 69.5,925.0 70.9,925.0 72.3,925.0 73.6,925.0 75.0,925.0 76.4,925.0 77.7,925.0 79.1,925.0 80.4,925.0 81.8,925.0 83.2,925.0 84.5,925.0 85.9,925.0 87.3,925.0 88.6,925.0 90.0,925.0 91.3,925.0 92.7,925.0 94.1,925.0 95.4,925.0 96.8,925.0 98.2,925.0 99.5,925.0 100.9,925.0 102.2,925.0 103.6,925.0 105.0,925.0 106.3,925.0 107.7,925.0 109.1,925.0 110.4,925.0 111.8,925.0 113.2,925.0 114.5,925.0 115.9,925.0 117.2,925.0 118.6,925.0 120.0,925.0 121.3,925.0 122.7,925.0 124.1,925.0 125.4,925.0 126.8,925.0 128.1,925.0 129.5,925.0 130.9,925.0 132.2,925.0 133.6,925.0 135.0,925.0 136.3,925.0 137.7,925.0 139.0,925.0 140.4,925.0 141.8,925.0 143.1,925.0 144.5,925.0 145.9,925.0 147.2,925.0 148.6,925.0 150.0,925.0 151.3,925.0 152.7,925.0 154.0,925.0 155.4,925.0 156.8,925.0 158.1,925.0 159.5,925.0 160.9,925.0 162.2,925.0 163.6,925.0 164.9,925.0 166.3,925.0 167.7,925.0 169.0,925.0 170.4,925.0 171.8,925.0 173.1,925.0 174.5,925.0 175.8,925.0 177.2,925.0 178.6,925.0 179.9,925.0 181.3,925.0 182.7,925.0 184.0,925.0 185.4,925.0 186.8,925.0 188.1,925.0 189.5,925.0 190.8,925.0 192.2,925.0 193.6,925.0 194.9,925.0 196.3,925.0 197.7,925.0 199.0,925.0 200.4,925.0 201.7,925.0 203.1,925.0 204.5,925.0 205.8,925.0 207.2,925.0 208.6,925.0 209.9,925.0 211.3,925.0 212.6,925.0 214.0,925.0 215.4,925.0 216.7,925.0 218.1,925.0 219.5,925.0 220.8,925.0 222.2,925.0 223.5,925.0 224.9,925.0 226.3,925.0 227.6,925.0 229.0,925.0 230.4,925.0 231.7,925.0 233.1,925.0 234.5,925.0 235.8,925.0 237.2,925.0 238.5,925.0 239.9,925.0 241.3,925.0 242.6,925.0 244.0,925.0 245.4,925.0 246.7,913.1 248.1,913.1 249.4,913.1 250.8,913.1 252.2,913.1 253.5,913.1 254.9,913.1 256.3,913.1 257.6,913.1 259.0,913.1 260.3,913.1 261.7,913.1 263.1,913.1 264.4,901.2 265.8,901.2 267.2,901.2 268.5,901.2 269.9,901.2 271.2,901.2 272.6,901.2 274.0,901.2 275.3,901.2 276.7,901.2 278.1,901.2 279.4,901.2 280.8,901.2 282.2,901.2 283.5,901.2 284.9,901.2 286.2,901.2 287.6,901.2 289.0,901.2 290.3,901.2 291.7,889.2 293.1,889.2 294.4,889.2 295.8,889.2 297.1,889.2 298.5,889.2 299.9,889.2 301.2,889.2 302.6,889.2 304.0,889.2 305.3,889.2 306.7,889.2 308.0,889.2 309.4,889.2 310.8,889.2 312.1,889.2 313.5,877.3 314.9,877.3 316.2,877.3 317.6,877.3 319.0,877.3 320.3,877.3 321.7,877.3 323.0,865.4 324.4,865.4 325.8,865.4 327.1,865.4 328.5,865.4 329.9,865.4 331.2,865.4 332.6,865.4 333.9,865.4 335.3,865.4 336.7,865.4 338.0,865.4 339.4,865.4 340.8,865.4 342.1,865.4 343.5,865.4 344.8,865.4 346.2,865.4 347.6,853.5 348.9,853.5 350.3,853.5 351.7,853.5 353.0,853.5 354.4,853.5 355.8,853.5 357.1,853.5 358.5,853.5 359.8,853.5 361.2,853.5 362.6,841.6 363.9,841.6 365.3,841.6 366.7,841.6 368.0,841.6 369.4,841.6 370.7,841.6 372.1,829.7 373.5,829.7 374.8,829.7 376.2,829.7 377.6,829.7 378.9,817.8 380.3,805.8 381.6,793.9 383.0,793.9 384.4,793.9 385.7,793.9 387.1,793.9 388.5,782.0 389.8,782.0 391.2,782.0 392.5,782.0 393.9,782.0 395.3,782.0 396.6,782.0 398.0,782.0" fill="none" stroke="#c35c20" stroke-width="1.8"/>
<text x="229.0" y="959" text-anchor="middle">Round</text>
<text x="426" y="767" class="panel">Wall deaths</text>
<path d="M465,925h338" stroke="#dce1e5"/>
<text x="459" y="929" text-anchor="end">0</text>
<text x="465" y="943" text-anchor="middle">0</text>
<path d="M465,853.5h338" stroke="#dce1e5"/>
<text x="459" y="857.5" text-anchor="end">8.5</text>
<text x="634.0" y="943" text-anchor="middle">124</text>
<path d="M465,782h338" stroke="#dce1e5"/>
<text x="459" y="786" text-anchor="end">17</text>
<text x="803" y="943" text-anchor="middle">248</text>
<polyline points="465.0,925.0 466.4,925.0 467.7,925.0 469.1,925.0 470.5,925.0 471.8,925.0 473.2,925.0 474.5,925.0 475.9,925.0 477.3,925.0 478.6,925.0 480.0,925.0 481.4,925.0 482.7,925.0 484.1,925.0 485.4,925.0 486.8,925.0 488.2,925.0 489.5,916.6 490.9,916.6 492.3,916.6 493.6,916.6 495.0,916.6 496.3,916.6 497.7,916.6 499.1,916.6 500.4,916.6 501.8,916.6 503.2,916.6 504.5,916.6 505.9,916.6 507.2,916.6 508.6,916.6 510.0,916.6 511.3,916.6 512.7,916.6 514.1,916.6 515.4,916.6 516.8,916.6 518.2,916.6 519.5,916.6 520.9,916.6 522.2,916.6 523.6,916.6 525.0,916.6 526.3,916.6 527.7,916.6 529.1,916.6 530.4,916.6 531.8,916.6 533.1,908.2 534.5,908.2 535.9,899.8 537.2,891.4 538.6,891.4 540.0,891.4 541.3,891.4 542.7,891.4 544.0,891.4 545.4,891.4 546.8,882.9 548.1,874.5 549.5,874.5 550.9,874.5 552.2,874.5 553.6,874.5 555.0,874.5 556.3,874.5 557.7,874.5 559.0,874.5 560.4,874.5 561.8,874.5 563.1,874.5 564.5,874.5 565.9,874.5 567.2,874.5 568.6,874.5 569.9,866.1 571.3,866.1 572.7,866.1 574.0,866.1 575.4,866.1 576.8,866.1 578.1,866.1 579.5,866.1 580.8,866.1 582.2,866.1 583.6,866.1 584.9,866.1 586.3,866.1 587.7,866.1 589.0,866.1 590.4,866.1 591.8,866.1 593.1,866.1 594.5,857.7 595.8,857.7 597.2,857.7 598.6,857.7 599.9,857.7 601.3,849.3 602.7,849.3 604.0,849.3 605.4,849.3 606.7,840.9 608.1,840.9 609.5,840.9 610.8,840.9 612.2,840.9 613.6,840.9 614.9,832.5 616.3,832.5 617.6,832.5 619.0,824.1 620.4,824.1 621.7,824.1 623.1,824.1 624.5,824.1 625.8,824.1 627.2,824.1 628.5,824.1 629.9,824.1 631.3,824.1 632.6,824.1 634.0,824.1 635.4,824.1 636.7,824.1 638.1,824.1 639.5,824.1 640.8,824.1 642.2,824.1 643.5,824.1 644.9,824.1 646.3,824.1 647.6,824.1 649.0,824.1 650.4,824.1 651.7,824.1 653.1,824.1 654.4,824.1 655.8,824.1 657.2,824.1 658.5,824.1 659.9,824.1 661.3,824.1 662.6,824.1 664.0,824.1 665.3,824.1 666.7,824.1 668.1,824.1 669.4,815.6 670.8,815.6 672.2,815.6 673.5,815.6 674.9,815.6 676.2,815.6 677.6,815.6 679.0,815.6 680.3,815.6 681.7,815.6 683.1,815.6 684.4,815.6 685.8,815.6 687.2,815.6 688.5,815.6 689.9,815.6 691.2,815.6 692.6,815.6 694.0,815.6 695.3,815.6 696.7,815.6 698.1,815.6 699.4,815.6 700.8,815.6 702.1,815.6 703.5,815.6 704.9,815.6 706.2,815.6 707.6,815.6 709.0,815.6 710.3,815.6 711.7,815.6 713.0,815.6 714.4,815.6 715.8,815.6 717.1,815.6 718.5,815.6 719.9,815.6 721.2,815.6 722.6,815.6 724.0,815.6 725.3,815.6 726.7,815.6 728.0,815.6 729.4,815.6 730.8,815.6 732.1,815.6 733.5,815.6 734.9,815.6 736.2,815.6 737.6,815.6 738.9,815.6 740.3,815.6 741.7,815.6 743.0,815.6 744.4,815.6 745.8,815.6 747.1,815.6 748.5,815.6 749.8,815.6 751.2,815.6 752.6,815.6 753.9,815.6 755.3,815.6 756.7,815.6 758.0,815.6 759.4,815.6 760.8,815.6 762.1,815.6 763.5,815.6 764.8,815.6 766.2,815.6 767.6,815.6 768.9,815.6 770.3,815.6 771.7,815.6 773.0,815.6 774.4,815.6 775.7,815.6 777.1,815.6 778.5,815.6 779.8,815.6 781.2,815.6 782.6,815.6 783.9,815.6 785.3,815.6 786.6,815.6 788.0,815.6 789.4,815.6 790.7,815.6 792.1,815.6 793.5,815.6 794.8,815.6 796.2,815.6 797.5,815.6 798.9,815.6 800.3,815.6 801.6,815.6 803.0,815.6" fill="none" stroke="#1677b8" stroke-width="1.8"/>
<polyline points="465.0,925.0 466.4,925.0 467.7,925.0 469.1,925.0 470.5,925.0 471.8,925.0 473.2,925.0 474.5,925.0 475.9,925.0 477.3,925.0 478.6,925.0 480.0,925.0 481.4,925.0 482.7,925.0 484.1,925.0 485.4,925.0 486.8,925.0 488.2,925.0 489.5,925.0 490.9,925.0 492.3,925.0 493.6,925.0 495.0,925.0 496.3,925.0 497.7,925.0 499.1,925.0 500.4,925.0 501.8,925.0 503.2,925.0 504.5,925.0 505.9,925.0 507.2,925.0 508.6,925.0 510.0,925.0 511.3,925.0 512.7,925.0 514.1,925.0 515.4,925.0 516.8,925.0 518.2,925.0 519.5,925.0 520.9,925.0 522.2,925.0 523.6,925.0 525.0,925.0 526.3,925.0 527.7,925.0 529.1,925.0 530.4,925.0 531.8,925.0 533.1,925.0 534.5,925.0 535.9,925.0 537.2,925.0 538.6,925.0 540.0,925.0 541.3,925.0 542.7,925.0 544.0,925.0 545.4,925.0 546.8,925.0 548.1,925.0 549.5,925.0 550.9,925.0 552.2,925.0 553.6,925.0 555.0,925.0 556.3,925.0 557.7,925.0 559.0,925.0 560.4,925.0 561.8,925.0 563.1,925.0 564.5,925.0 565.9,925.0 567.2,925.0 568.6,925.0 569.9,925.0 571.3,925.0 572.7,925.0 574.0,925.0 575.4,925.0 576.8,925.0 578.1,925.0 579.5,925.0 580.8,925.0 582.2,925.0 583.6,925.0 584.9,925.0 586.3,925.0 587.7,925.0 589.0,925.0 590.4,925.0 591.8,925.0 593.1,925.0 594.5,925.0 595.8,925.0 597.2,925.0 598.6,925.0 599.9,925.0 601.3,925.0 602.7,925.0 604.0,925.0 605.4,925.0 606.7,925.0 608.1,925.0 609.5,925.0 610.8,925.0 612.2,925.0 613.6,925.0 614.9,925.0 616.3,925.0 617.6,925.0 619.0,925.0 620.4,925.0 621.7,925.0 623.1,925.0 624.5,925.0 625.8,925.0 627.2,925.0 628.5,925.0 629.9,925.0 631.3,925.0 632.6,925.0 634.0,925.0 635.4,925.0 636.7,925.0 638.1,925.0 639.5,925.0 640.8,925.0 642.2,925.0 643.5,925.0 644.9,925.0 646.3,925.0 647.6,925.0 649.0,925.0 650.4,925.0 651.7,916.6 653.1,916.6 654.4,916.6 655.8,916.6 657.2,916.6 658.5,916.6 659.9,916.6 661.3,916.6 662.6,916.6 664.0,916.6 665.3,916.6 666.7,916.6 668.1,916.6 669.4,916.6 670.8,916.6 672.2,916.6 673.5,916.6 674.9,916.6 676.2,916.6 677.6,916.6 679.0,916.6 680.3,916.6 681.7,916.6 683.1,916.6 684.4,908.2 685.8,908.2 687.2,899.8 688.5,899.8 689.9,899.8 691.2,899.8 692.6,891.4 694.0,891.4 695.3,891.4 696.7,891.4 698.1,891.4 699.4,891.4 700.8,891.4 702.1,891.4 703.5,891.4 704.9,891.4 706.2,891.4 707.6,891.4 709.0,891.4 710.3,882.9 711.7,882.9 713.0,882.9 714.4,874.5 715.8,874.5 717.1,874.5 718.5,874.5 719.9,874.5 721.2,874.5 722.6,866.1 724.0,866.1 725.3,866.1 726.7,866.1 728.0,866.1 729.4,866.1 730.8,866.1 732.1,866.1 733.5,866.1 734.9,866.1 736.2,866.1 737.6,866.1 738.9,866.1 740.3,866.1 741.7,866.1 743.0,866.1 744.4,866.1 745.8,866.1 747.1,857.7 748.5,857.7 749.8,857.7 751.2,857.7 752.6,840.9 753.9,840.9 755.3,840.9 756.7,840.9 758.0,840.9 759.4,840.9 760.8,840.9 762.1,840.9 763.5,840.9 764.8,840.9 766.2,824.1 767.6,824.1 768.9,815.6 770.3,815.6 771.7,815.6 773.0,815.6 774.4,815.6 775.7,815.6 777.1,815.6 778.5,798.8 779.8,798.8 781.2,798.8 782.6,798.8 783.9,798.8 785.3,790.4 786.6,790.4 788.0,790.4 789.4,790.4 790.7,782.0 792.1,782.0 793.5,782.0 794.8,782.0 796.2,782.0 797.5,782.0 798.9,782.0 800.3,782.0 801.6,782.0 803.0,782.0" fill="none" stroke="#c35c20" stroke-width="1.8"/>
<text x="634.0" y="959" text-anchor="middle">Round</text>
<text x="831" y="767" class="panel">Invalid / absent action deaths</text>
<path d="M870,925h338" stroke="#dce1e5"/>
<text x="864" y="929" text-anchor="end">0</text>
<text x="870" y="943" text-anchor="middle">0</text>
<path d="M870,853.5h338" stroke="#dce1e5"/>
<text x="864" y="857.5" text-anchor="end">0.5</text>
<text x="1039.0" y="943" text-anchor="middle">124</text>
<path d="M870,782h338" stroke="#dce1e5"/>
<text x="864" y="786" text-anchor="end">1</text>
<text x="1208" y="943" text-anchor="middle">248</text>
<polyline points="870.0,925.0 871.4,925.0 872.7,925.0 874.1,925.0 875.5,925.0 876.8,925.0 878.2,925.0 879.5,925.0 880.9,925.0 882.3,925.0 883.6,925.0 885.0,925.0 886.4,925.0 887.7,925.0 889.1,925.0 890.4,925.0 891.8,925.0 893.2,925.0 894.5,925.0 895.9,925.0 897.3,925.0 898.6,925.0 900.0,925.0 901.3,925.0 902.7,925.0 904.1,925.0 905.4,925.0 906.8,925.0 908.2,925.0 909.5,925.0 910.9,925.0 912.2,925.0 913.6,925.0 915.0,925.0 916.3,925.0 917.7,925.0 919.1,925.0 920.4,925.0 921.8,925.0 923.2,925.0 924.5,925.0 925.9,925.0 927.2,925.0 928.6,925.0 930.0,925.0 931.3,925.0 932.7,925.0 934.1,925.0 935.4,925.0 936.8,925.0 938.1,925.0 939.5,925.0 940.9,925.0 942.2,925.0 943.6,925.0 945.0,925.0 946.3,925.0 947.7,925.0 949.0,925.0 950.4,925.0 951.8,925.0 953.1,925.0 954.5,925.0 955.9,925.0 957.2,925.0 958.6,925.0 960.0,925.0 961.3,925.0 962.7,925.0 964.0,925.0 965.4,925.0 966.8,925.0 968.1,925.0 969.5,925.0 970.9,925.0 972.2,925.0 973.6,925.0 974.9,925.0 976.3,925.0 977.7,925.0 979.0,925.0 980.4,925.0 981.8,925.0 983.1,925.0 984.5,925.0 985.8,925.0 987.2,925.0 988.6,925.0 989.9,925.0 991.3,925.0 992.7,925.0 994.0,925.0 995.4,925.0 996.8,925.0 998.1,925.0 999.5,925.0 1000.8,925.0 1002.2,925.0 1003.6,925.0 1004.9,925.0 1006.3,925.0 1007.7,925.0 1009.0,925.0 1010.4,925.0 1011.7,925.0 1013.1,925.0 1014.5,925.0 1015.8,925.0 1017.2,925.0 1018.6,925.0 1019.9,925.0 1021.3,925.0 1022.6,925.0 1024.0,925.0 1025.4,925.0 1026.7,925.0 1028.1,925.0 1029.5,925.0 1030.8,925.0 1032.2,925.0 1033.5,925.0 1034.9,925.0 1036.3,925.0 1037.6,925.0 1039.0,925.0 1040.4,925.0 1041.7,925.0 1043.1,925.0 1044.5,925.0 1045.8,925.0 1047.2,925.0 1048.5,925.0 1049.9,925.0 1051.3,925.0 1052.6,925.0 1054.0,925.0 1055.4,925.0 1056.7,925.0 1058.1,925.0 1059.4,925.0 1060.8,925.0 1062.2,925.0 1063.5,925.0 1064.9,925.0 1066.3,925.0 1067.6,925.0 1069.0,925.0 1070.3,925.0 1071.7,925.0 1073.1,925.0 1074.4,925.0 1075.8,925.0 1077.2,925.0 1078.5,925.0 1079.9,925.0 1081.2,925.0 1082.6,925.0 1084.0,925.0 1085.3,925.0 1086.7,925.0 1088.1,925.0 1089.4,925.0 1090.8,925.0 1092.2,925.0 1093.5,925.0 1094.9,925.0 1096.2,925.0 1097.6,925.0 1099.0,925.0 1100.3,925.0 1101.7,925.0 1103.1,925.0 1104.4,925.0 1105.8,925.0 1107.1,925.0 1108.5,925.0 1109.9,925.0 1111.2,925.0 1112.6,925.0 1114.0,925.0 1115.3,925.0 1116.7,925.0 1118.0,925.0 1119.4,925.0 1120.8,925.0 1122.1,925.0 1123.5,925.0 1124.9,925.0 1126.2,925.0 1127.6,925.0 1129.0,925.0 1130.3,925.0 1131.7,925.0 1133.0,925.0 1134.4,925.0 1135.8,925.0 1137.1,925.0 1138.5,925.0 1139.9,925.0 1141.2,925.0 1142.6,925.0 1143.9,925.0 1145.3,925.0 1146.7,925.0 1148.0,925.0 1149.4,925.0 1150.8,925.0 1152.1,925.0 1153.5,925.0 1154.8,925.0 1156.2,925.0 1157.6,925.0 1158.9,925.0 1160.3,925.0 1161.7,925.0 1163.0,925.0 1164.4,925.0 1165.8,925.0 1167.1,925.0 1168.5,925.0 1169.8,925.0 1171.2,925.0 1172.6,925.0 1173.9,925.0 1175.3,925.0 1176.7,925.0 1178.0,925.0 1179.4,925.0 1180.7,925.0 1182.1,925.0 1183.5,925.0 1184.8,925.0 1186.2,925.0 1187.6,925.0 1188.9,925.0 1190.3,925.0 1191.6,925.0 1193.0,925.0 1194.4,925.0 1195.7,925.0 1197.1,925.0 1198.5,925.0 1199.8,925.0 1201.2,925.0 1202.5,925.0 1203.9,925.0 1205.3,925.0 1206.6,925.0 1208.0,925.0" fill="none" stroke="#1677b8" stroke-width="1.8"/>
<polyline points="870.0,925.0 871.4,925.0 872.7,925.0 874.1,925.0 875.5,925.0 876.8,925.0 878.2,925.0 879.5,925.0 880.9,925.0 882.3,925.0 883.6,925.0 885.0,925.0 886.4,925.0 887.7,925.0 889.1,925.0 890.4,925.0 891.8,925.0 893.2,925.0 894.5,925.0 895.9,925.0 897.3,925.0 898.6,925.0 900.0,925.0 901.3,925.0 902.7,925.0 904.1,925.0 905.4,925.0 906.8,925.0 908.2,925.0 909.5,925.0 910.9,925.0 912.2,925.0 913.6,925.0 915.0,925.0 916.3,925.0 917.7,925.0 919.1,925.0 920.4,925.0 921.8,925.0 923.2,925.0 924.5,925.0 925.9,925.0 927.2,925.0 928.6,925.0 930.0,925.0 931.3,925.0 932.7,925.0 934.1,925.0 935.4,925.0 936.8,925.0 938.1,925.0 939.5,925.0 940.9,925.0 942.2,925.0 943.6,925.0 945.0,925.0 946.3,925.0 947.7,925.0 949.0,925.0 950.4,925.0 951.8,925.0 953.1,925.0 954.5,925.0 955.9,925.0 957.2,925.0 958.6,925.0 960.0,925.0 961.3,925.0 962.7,925.0 964.0,925.0 965.4,925.0 966.8,925.0 968.1,925.0 969.5,925.0 970.9,925.0 972.2,925.0 973.6,925.0 974.9,925.0 976.3,925.0 977.7,925.0 979.0,925.0 980.4,925.0 981.8,925.0 983.1,925.0 984.5,925.0 985.8,925.0 987.2,925.0 988.6,925.0 989.9,925.0 991.3,925.0 992.7,925.0 994.0,925.0 995.4,925.0 996.8,925.0 998.1,925.0 999.5,925.0 1000.8,925.0 1002.2,925.0 1003.6,925.0 1004.9,925.0 1006.3,925.0 1007.7,925.0 1009.0,925.0 1010.4,925.0 1011.7,925.0 1013.1,925.0 1014.5,925.0 1015.8,925.0 1017.2,925.0 1018.6,925.0 1019.9,925.0 1021.3,925.0 1022.6,925.0 1024.0,925.0 1025.4,925.0 1026.7,925.0 1028.1,925.0 1029.5,925.0 1030.8,925.0 1032.2,925.0 1033.5,925.0 1034.9,925.0 1036.3,925.0 1037.6,925.0 1039.0,925.0 1040.4,925.0 1041.7,925.0 1043.1,925.0 1044.5,925.0 1045.8,925.0 1047.2,925.0 1048.5,925.0 1049.9,925.0 1051.3,925.0 1052.6,925.0 1054.0,925.0 1055.4,925.0 1056.7,925.0 1058.1,925.0 1059.4,925.0 1060.8,925.0 1062.2,925.0 1063.5,925.0 1064.9,925.0 1066.3,925.0 1067.6,925.0 1069.0,925.0 1070.3,925.0 1071.7,925.0 1073.1,925.0 1074.4,925.0 1075.8,925.0 1077.2,925.0 1078.5,925.0 1079.9,925.0 1081.2,925.0 1082.6,925.0 1084.0,925.0 1085.3,925.0 1086.7,925.0 1088.1,925.0 1089.4,925.0 1090.8,925.0 1092.2,925.0 1093.5,925.0 1094.9,925.0 1096.2,925.0 1097.6,925.0 1099.0,925.0 1100.3,925.0 1101.7,925.0 1103.1,925.0 1104.4,925.0 1105.8,925.0 1107.1,925.0 1108.5,925.0 1109.9,925.0 1111.2,925.0 1112.6,925.0 1114.0,925.0 1115.3,925.0 1116.7,925.0 1118.0,925.0 1119.4,925.0 1120.8,925.0 1122.1,925.0 1123.5,925.0 1124.9,925.0 1126.2,925.0 1127.6,925.0 1129.0,925.0 1130.3,925.0 1131.7,925.0 1133.0,925.0 1134.4,925.0 1135.8,925.0 1137.1,925.0 1138.5,925.0 1139.9,925.0 1141.2,925.0 1142.6,925.0 1143.9,925.0 1145.3,925.0 1146.7,925.0 1148.0,925.0 1149.4,925.0 1150.8,925.0 1152.1,925.0 1153.5,925.0 1154.8,925.0 1156.2,925.0 1157.6,925.0 1158.9,925.0 1160.3,925.0 1161.7,925.0 1163.0,925.0 1164.4,925.0 1165.8,925.0 1167.1,925.0 1168.5,925.0 1169.8,925.0 1171.2,925.0 1172.6,925.0 1173.9,925.0 1175.3,925.0 1176.7,925.0 1178.0,925.0 1179.4,925.0 1180.7,925.0 1182.1,925.0 1183.5,925.0 1184.8,925.0 1186.2,925.0 1187.6,925.0 1188.9,925.0 1190.3,925.0 1191.6,925.0 1193.0,925.0 1194.4,925.0 1195.7,925.0 1197.1,925.0 1198.5,925.0 1199.8,925.0 1201.2,925.0 1202.5,925.0 1203.9,925.0 1205.3,925.0 1206.6,925.0 1208.0,925.0" fill="none" stroke="#c35c20" stroke-width="1.8"/>
<text x="1039.0" y="959" text-anchor="middle">Round</text>
<text x="21" y="982" class="panel">Suicide / no-action events</text>
<path d="M60,1140h338" stroke="#dce1e5"/>
<text x="54" y="1144" text-anchor="end">0</text>
<text x="60" y="1158" text-anchor="middle">0</text>
<path d="M60,1068.5h338" stroke="#dce1e5"/>
<text x="54" y="1072.5" text-anchor="end">0.5</text>
<text x="229.0" y="1158" text-anchor="middle">124</text>
<path d="M60,997h338" stroke="#dce1e5"/>
<text x="54" y="1001" text-anchor="end">1</text>
<text x="398" y="1158" text-anchor="middle">248</text>
<polyline points="60.0,1140.0 61.4,1140.0 62.7,1140.0 64.1,1140.0 65.5,1140.0 66.8,1140.0 68.2,1140.0 69.5,1140.0 70.9,1140.0 72.3,1140.0 73.6,1140.0 75.0,1140.0 76.4,1140.0 77.7,1140.0 79.1,1140.0 80.4,1140.0 81.8,1140.0 83.2,1140.0 84.5,1140.0 85.9,1140.0 87.3,1140.0 88.6,1140.0 90.0,1140.0 91.3,1140.0 92.7,1140.0 94.1,1140.0 95.4,1140.0 96.8,1140.0 98.2,1140.0 99.5,1140.0 100.9,1140.0 102.2,1140.0 103.6,1140.0 105.0,1140.0 106.3,1140.0 107.7,1140.0 109.1,1140.0 110.4,1140.0 111.8,1140.0 113.2,1140.0 114.5,1140.0 115.9,1140.0 117.2,1140.0 118.6,1140.0 120.0,1140.0 121.3,1140.0 122.7,1140.0 124.1,1140.0 125.4,1140.0 126.8,1140.0 128.1,1140.0 129.5,1140.0 130.9,1140.0 132.2,1140.0 133.6,1140.0 135.0,1140.0 136.3,1140.0 137.7,1140.0 139.0,1140.0 140.4,1140.0 141.8,1140.0 143.1,1140.0 144.5,1140.0 145.9,1140.0 147.2,1140.0 148.6,1140.0 150.0,1140.0 151.3,1140.0 152.7,1140.0 154.0,1140.0 155.4,1140.0 156.8,1140.0 158.1,1140.0 159.5,1140.0 160.9,1140.0 162.2,1140.0 163.6,1140.0 164.9,1140.0 166.3,1140.0 167.7,1140.0 169.0,1140.0 170.4,1140.0 171.8,1140.0 173.1,1140.0 174.5,1140.0 175.8,1140.0 177.2,1140.0 178.6,1140.0 179.9,1140.0 181.3,1140.0 182.7,1140.0 184.0,1140.0 185.4,1140.0 186.8,1140.0 188.1,1140.0 189.5,1140.0 190.8,1140.0 192.2,1140.0 193.6,1140.0 194.9,1140.0 196.3,1140.0 197.7,1140.0 199.0,1140.0 200.4,1140.0 201.7,1140.0 203.1,1140.0 204.5,1140.0 205.8,1140.0 207.2,1140.0 208.6,1140.0 209.9,1140.0 211.3,1140.0 212.6,1140.0 214.0,1140.0 215.4,1140.0 216.7,1140.0 218.1,1140.0 219.5,1140.0 220.8,1140.0 222.2,1140.0 223.5,1140.0 224.9,1140.0 226.3,1140.0 227.6,1140.0 229.0,1140.0 230.4,1140.0 231.7,1140.0 233.1,1140.0 234.5,1140.0 235.8,1140.0 237.2,1140.0 238.5,1140.0 239.9,1140.0 241.3,1140.0 242.6,1140.0 244.0,1140.0 245.4,1140.0 246.7,1140.0 248.1,1140.0 249.4,1140.0 250.8,1140.0 252.2,1140.0 253.5,1140.0 254.9,1140.0 256.3,1140.0 257.6,1140.0 259.0,1140.0 260.3,1140.0 261.7,1140.0 263.1,1140.0 264.4,1140.0 265.8,1140.0 267.2,1140.0 268.5,1140.0 269.9,1140.0 271.2,1140.0 272.6,1140.0 274.0,1140.0 275.3,1140.0 276.7,1140.0 278.1,1140.0 279.4,1140.0 280.8,1140.0 282.2,1140.0 283.5,1140.0 284.9,1140.0 286.2,1140.0 287.6,1140.0 289.0,1140.0 290.3,1140.0 291.7,1140.0 293.1,1140.0 294.4,1140.0 295.8,1140.0 297.1,1140.0 298.5,1140.0 299.9,1140.0 301.2,1140.0 302.6,1140.0 304.0,1140.0 305.3,1140.0 306.7,1140.0 308.0,1140.0 309.4,1140.0 310.8,1140.0 312.1,1140.0 313.5,1140.0 314.9,1140.0 316.2,1140.0 317.6,1140.0 319.0,1140.0 320.3,1140.0 321.7,1140.0 323.0,1140.0 324.4,1140.0 325.8,1140.0 327.1,1140.0 328.5,1140.0 329.9,1140.0 331.2,1140.0 332.6,1140.0 333.9,1140.0 335.3,1140.0 336.7,1140.0 338.0,1140.0 339.4,1140.0 340.8,1140.0 342.1,1140.0 343.5,1140.0 344.8,1140.0 346.2,1140.0 347.6,1140.0 348.9,1140.0 350.3,1140.0 351.7,1140.0 353.0,1140.0 354.4,1140.0 355.8,1140.0 357.1,1140.0 358.5,1140.0 359.8,1140.0 361.2,1140.0 362.6,1140.0 363.9,1140.0 365.3,1140.0 366.7,1140.0 368.0,1140.0 369.4,1140.0 370.7,1140.0 372.1,1140.0 373.5,1140.0 374.8,1140.0 376.2,1140.0 377.6,1140.0 378.9,1140.0 380.3,1140.0 381.6,1140.0 383.0,1140.0 384.4,1140.0 385.7,1140.0 387.1,1140.0 388.5,1140.0 389.8,1140.0 391.2,1140.0 392.5,1140.0 393.9,1140.0 395.3,1140.0 396.6,1140.0 398.0,1140.0" fill="none" stroke="#1677b8" stroke-width="1.8"/>
<polyline points="60.0,1140.0 61.4,1140.0 62.7,1140.0 64.1,1140.0 65.5,1140.0 66.8,1140.0 68.2,1140.0 69.5,1140.0 70.9,1140.0 72.3,1140.0 73.6,1140.0 75.0,1140.0 76.4,1140.0 77.7,1140.0 79.1,1140.0 80.4,1140.0 81.8,1140.0 83.2,1140.0 84.5,1140.0 85.9,1140.0 87.3,1140.0 88.6,1140.0 90.0,1140.0 91.3,1140.0 92.7,1140.0 94.1,1140.0 95.4,1140.0 96.8,1140.0 98.2,1140.0 99.5,1140.0 100.9,1140.0 102.2,1140.0 103.6,1140.0 105.0,1140.0 106.3,1140.0 107.7,1140.0 109.1,1140.0 110.4,1140.0 111.8,1140.0 113.2,1140.0 114.5,1140.0 115.9,1140.0 117.2,1140.0 118.6,1140.0 120.0,1140.0 121.3,1140.0 122.7,1140.0 124.1,1140.0 125.4,1140.0 126.8,1140.0 128.1,1140.0 129.5,1140.0 130.9,1140.0 132.2,1140.0 133.6,1140.0 135.0,1140.0 136.3,1140.0 137.7,1140.0 139.0,1140.0 140.4,1140.0 141.8,1140.0 143.1,1140.0 144.5,1140.0 145.9,1140.0 147.2,1140.0 148.6,1140.0 150.0,1140.0 151.3,1140.0 152.7,1140.0 154.0,1140.0 155.4,1140.0 156.8,1140.0 158.1,1140.0 159.5,1140.0 160.9,1140.0 162.2,1140.0 163.6,1140.0 164.9,1140.0 166.3,1140.0 167.7,1140.0 169.0,1140.0 170.4,1140.0 171.8,1140.0 173.1,1140.0 174.5,1140.0 175.8,1140.0 177.2,1140.0 178.6,1140.0 179.9,1140.0 181.3,1140.0 182.7,1140.0 184.0,1140.0 185.4,1140.0 186.8,1140.0 188.1,1140.0 189.5,1140.0 190.8,1140.0 192.2,1140.0 193.6,1140.0 194.9,1140.0 196.3,1140.0 197.7,1140.0 199.0,1140.0 200.4,1140.0 201.7,1140.0 203.1,1140.0 204.5,1140.0 205.8,1140.0 207.2,1140.0 208.6,1140.0 209.9,1140.0 211.3,1140.0 212.6,1140.0 214.0,1140.0 215.4,1140.0 216.7,1140.0 218.1,1140.0 219.5,1140.0 220.8,1140.0 222.2,1140.0 223.5,1140.0 224.9,1140.0 226.3,1140.0 227.6,1140.0 229.0,1140.0 230.4,1140.0 231.7,1140.0 233.1,1140.0 234.5,1140.0 235.8,1140.0 237.2,1140.0 238.5,1140.0 239.9,1140.0 241.3,1140.0 242.6,1140.0 244.0,1140.0 245.4,1140.0 246.7,1140.0 248.1,1140.0 249.4,1140.0 250.8,1140.0 252.2,1140.0 253.5,1140.0 254.9,1140.0 256.3,1140.0 257.6,1140.0 259.0,1140.0 260.3,1140.0 261.7,1140.0 263.1,1140.0 264.4,1140.0 265.8,1140.0 267.2,1140.0 268.5,1140.0 269.9,1140.0 271.2,1140.0 272.6,1140.0 274.0,1140.0 275.3,1140.0 276.7,1140.0 278.1,1140.0 279.4,1140.0 280.8,1140.0 282.2,1140.0 283.5,1140.0 284.9,1140.0 286.2,1140.0 287.6,1140.0 289.0,1140.0 290.3,1140.0 291.7,1140.0 293.1,1140.0 294.4,1140.0 295.8,1140.0 297.1,1140.0 298.5,1140.0 299.9,1140.0 301.2,1140.0 302.6,1140.0 304.0,1140.0 305.3,1140.0 306.7,1140.0 308.0,1140.0 309.4,1140.0 310.8,1140.0 312.1,1140.0 313.5,1140.0 314.9,1140.0 316.2,1140.0 317.6,1140.0 319.0,1140.0 320.3,1140.0 321.7,1140.0 323.0,1140.0 324.4,1140.0 325.8,1140.0 327.1,1140.0 328.5,1140.0 329.9,1140.0 331.2,1140.0 332.6,1140.0 333.9,1140.0 335.3,1140.0 336.7,1140.0 338.0,1140.0 339.4,1140.0 340.8,1140.0 342.1,1140.0 343.5,1140.0 344.8,1140.0 346.2,1140.0 347.6,1140.0 348.9,1140.0 350.3,1140.0 351.7,1140.0 353.0,1140.0 354.4,1140.0 355.8,1140.0 357.1,1140.0 358.5,1140.0 359.8,1140.0 361.2,1140.0 362.6,1140.0 363.9,1140.0 365.3,1140.0 366.7,1140.0 368.0,1140.0 369.4,1140.0 370.7,1140.0 372.1,1140.0 373.5,1140.0 374.8,1140.0 376.2,1140.0 377.6,1140.0 378.9,1140.0 380.3,1140.0 381.6,1140.0 383.0,1140.0 384.4,1140.0 385.7,1140.0 387.1,1140.0 388.5,1140.0 389.8,1140.0 391.2,1140.0 392.5,1140.0 393.9,1140.0 395.3,1140.0 396.6,1140.0 398.0,1140.0" fill="none" stroke="#c35c20" stroke-width="1.8"/>
<text x="229.0" y="1174" text-anchor="middle">Round</text>
<text x="426" y="982" class="panel">Timed-out turns</text>
<path d="M465,1140h338" stroke="#dce1e5"/>
<text x="459" y="1144" text-anchor="end">0</text>
<text x="465" y="1158" text-anchor="middle">0</text>
<path d="M465,1068.5h338" stroke="#dce1e5"/>
<text x="459" y="1072.5" text-anchor="end">0.5</text>
<text x="634.0" y="1158" text-anchor="middle">124</text>
<path d="M465,997h338" stroke="#dce1e5"/>
<text x="459" y="1001" text-anchor="end">1</text>
<text x="803" y="1158" text-anchor="middle">248</text>
<polyline points="465.0,1140.0 466.4,1140.0 467.7,1140.0 469.1,1140.0 470.5,1140.0 471.8,1140.0 473.2,1140.0 474.5,1140.0 475.9,1140.0 477.3,1140.0 478.6,1140.0 480.0,1140.0 481.4,1140.0 482.7,1140.0 484.1,1140.0 485.4,1140.0 486.8,1140.0 488.2,1140.0 489.5,1140.0 490.9,1140.0 492.3,1140.0 493.6,1140.0 495.0,1140.0 496.3,1140.0 497.7,1140.0 499.1,1140.0 500.4,1140.0 501.8,1140.0 503.2,1140.0 504.5,1140.0 505.9,1140.0 507.2,1140.0 508.6,1140.0 510.0,1140.0 511.3,1140.0 512.7,1140.0 514.1,1140.0 515.4,1140.0 516.8,1140.0 518.2,1140.0 519.5,1140.0 520.9,1140.0 522.2,1140.0 523.6,1140.0 525.0,1140.0 526.3,1140.0 527.7,1140.0 529.1,1140.0 530.4,1140.0 531.8,1140.0 533.1,1140.0 534.5,1140.0 535.9,1140.0 537.2,1140.0 538.6,1140.0 540.0,1140.0 541.3,1140.0 542.7,1140.0 544.0,1140.0 545.4,1140.0 546.8,1140.0 548.1,1140.0 549.5,1140.0 550.9,1140.0 552.2,1140.0 553.6,1140.0 555.0,1140.0 556.3,1140.0 557.7,1140.0 559.0,1140.0 560.4,1140.0 561.8,1140.0 563.1,1140.0 564.5,1140.0 565.9,1140.0 567.2,1140.0 568.6,1140.0 569.9,1140.0 571.3,1140.0 572.7,1140.0 574.0,1140.0 575.4,1140.0 576.8,1140.0 578.1,1140.0 579.5,1140.0 580.8,1140.0 582.2,1140.0 583.6,1140.0 584.9,1140.0 586.3,1140.0 587.7,1140.0 589.0,1140.0 590.4,1140.0 591.8,1140.0 593.1,1140.0 594.5,1140.0 595.8,1140.0 597.2,1140.0 598.6,1140.0 599.9,1140.0 601.3,1140.0 602.7,1140.0 604.0,1140.0 605.4,1140.0 606.7,1140.0 608.1,1140.0 609.5,1140.0 610.8,1140.0 612.2,1140.0 613.6,1140.0 614.9,1140.0 616.3,1140.0 617.6,1140.0 619.0,1140.0 620.4,1140.0 621.7,1140.0 623.1,1140.0 624.5,1140.0 625.8,1140.0 627.2,1140.0 628.5,1140.0 629.9,1140.0 631.3,1140.0 632.6,1140.0 634.0,1140.0 635.4,1140.0 636.7,1140.0 638.1,1140.0 639.5,1140.0 640.8,1140.0 642.2,1140.0 643.5,1140.0 644.9,1140.0 646.3,1140.0 647.6,1140.0 649.0,1140.0 650.4,1140.0 651.7,1140.0 653.1,1140.0 654.4,1140.0 655.8,1140.0 657.2,1140.0 658.5,1140.0 659.9,1140.0 661.3,1140.0 662.6,1140.0 664.0,1140.0 665.3,1140.0 666.7,1140.0 668.1,1140.0 669.4,1140.0 670.8,1140.0 672.2,1140.0 673.5,1140.0 674.9,1140.0 676.2,1140.0 677.6,1140.0 679.0,1140.0 680.3,1140.0 681.7,1140.0 683.1,1140.0 684.4,1140.0 685.8,1140.0 687.2,1140.0 688.5,1140.0 689.9,1140.0 691.2,1140.0 692.6,1140.0 694.0,1140.0 695.3,1140.0 696.7,1140.0 698.1,1140.0 699.4,1140.0 700.8,1140.0 702.1,1140.0 703.5,1140.0 704.9,1140.0 706.2,1140.0 707.6,1140.0 709.0,1140.0 710.3,1140.0 711.7,1140.0 713.0,1140.0 714.4,1140.0 715.8,1140.0 717.1,1140.0 718.5,1140.0 719.9,1140.0 721.2,1140.0 722.6,1140.0 724.0,1140.0 725.3,1140.0 726.7,1140.0 728.0,1140.0 729.4,1140.0 730.8,1140.0 732.1,1140.0 733.5,1140.0 734.9,1140.0 736.2,1140.0 737.6,1140.0 738.9,1140.0 740.3,1140.0 741.7,1140.0 743.0,1140.0 744.4,1140.0 745.8,1140.0 747.1,1140.0 748.5,1140.0 749.8,1140.0 751.2,1140.0 752.6,1140.0 753.9,1140.0 755.3,1140.0 756.7,1140.0 758.0,1140.0 759.4,1140.0 760.8,1140.0 762.1,1140.0 763.5,1140.0 764.8,1140.0 766.2,1140.0 767.6,1140.0 768.9,1140.0 770.3,1140.0 771.7,1140.0 773.0,1140.0 774.4,1140.0 775.7,1140.0 777.1,1140.0 778.5,1140.0 779.8,1140.0 781.2,1140.0 782.6,1140.0 783.9,1140.0 785.3,1140.0 786.6,1140.0 788.0,1140.0 789.4,1140.0 790.7,1140.0 792.1,1140.0 793.5,1140.0 794.8,1140.0 796.2,1140.0 797.5,1140.0 798.9,1140.0 800.3,1140.0 801.6,1140.0 803.0,1140.0" fill="none" stroke="#1677b8" stroke-width="1.8"/>
<polyline points="465.0,1140.0 466.4,1140.0 467.7,1140.0 469.1,1140.0 470.5,1140.0 471.8,1140.0 473.2,1140.0 474.5,1140.0 475.9,1140.0 477.3,1140.0 478.6,1140.0 480.0,1140.0 481.4,1140.0 482.7,1140.0 484.1,1140.0 485.4,1140.0 486.8,1140.0 488.2,1140.0 489.5,1140.0 490.9,1140.0 492.3,1140.0 493.6,1140.0 495.0,1140.0 496.3,1140.0 497.7,1140.0 499.1,1140.0 500.4,1140.0 501.8,1140.0 503.2,1140.0 504.5,1140.0 505.9,1140.0 507.2,1140.0 508.6,1140.0 510.0,1140.0 511.3,1140.0 512.7,1140.0 514.1,1140.0 515.4,1140.0 516.8,1140.0 518.2,1140.0 519.5,1140.0 520.9,1140.0 522.2,1140.0 523.6,1140.0 525.0,1140.0 526.3,1140.0 527.7,1140.0 529.1,1140.0 530.4,1140.0 531.8,1140.0 533.1,1140.0 534.5,1140.0 535.9,1140.0 537.2,1140.0 538.6,1140.0 540.0,1140.0 541.3,1140.0 542.7,1140.0 544.0,1140.0 545.4,1140.0 546.8,1140.0 548.1,1140.0 549.5,1140.0 550.9,1140.0 552.2,1140.0 553.6,1140.0 555.0,1140.0 556.3,1140.0 557.7,1140.0 559.0,1140.0 560.4,1140.0 561.8,1140.0 563.1,1140.0 564.5,1140.0 565.9,1140.0 567.2,1140.0 568.6,1140.0 569.9,1140.0 571.3,1140.0 572.7,1140.0 574.0,1140.0 575.4,1140.0 576.8,1140.0 578.1,1140.0 579.5,1140.0 580.8,1140.0 582.2,1140.0 583.6,1140.0 584.9,1140.0 586.3,1140.0 587.7,1140.0 589.0,1140.0 590.4,1140.0 591.8,1140.0 593.1,1140.0 594.5,1140.0 595.8,1140.0 597.2,1140.0 598.6,1140.0 599.9,1140.0 601.3,1140.0 602.7,1140.0 604.0,1140.0 605.4,1140.0 606.7,1140.0 608.1,1140.0 609.5,1140.0 610.8,1140.0 612.2,1140.0 613.6,1140.0 614.9,1140.0 616.3,1140.0 617.6,1140.0 619.0,1140.0 620.4,1140.0 621.7,1140.0 623.1,1140.0 624.5,1140.0 625.8,1140.0 627.2,1140.0 628.5,1140.0 629.9,1140.0 631.3,1140.0 632.6,1140.0 634.0,1140.0 635.4,1140.0 636.7,1140.0 638.1,1140.0 639.5,1140.0 640.8,1140.0 642.2,1140.0 643.5,1140.0 644.9,1140.0 646.3,1140.0 647.6,1140.0 649.0,1140.0 650.4,1140.0 651.7,1140.0 653.1,1140.0 654.4,1140.0 655.8,1140.0 657.2,1140.0 658.5,1140.0 659.9,1140.0 661.3,1140.0 662.6,1140.0 664.0,1140.0 665.3,1140.0 666.7,1140.0 668.1,1140.0 669.4,1140.0 670.8,1140.0 672.2,1140.0 673.5,1140.0 674.9,1140.0 676.2,1140.0 677.6,1140.0 679.0,1140.0 680.3,1140.0 681.7,1140.0 683.1,1140.0 684.4,1140.0 685.8,1140.0 687.2,1140.0 688.5,1140.0 689.9,1140.0 691.2,1140.0 692.6,1140.0 694.0,1140.0 695.3,1140.0 696.7,1140.0 698.1,1140.0 699.4,1140.0 700.8,1140.0 702.1,1140.0 703.5,1140.0 704.9,1140.0 706.2,1140.0 707.6,1140.0 709.0,1140.0 710.3,1140.0 711.7,1140.0 713.0,1140.0 714.4,1140.0 715.8,1140.0 717.1,1140.0 718.5,1140.0 719.9,1140.0 721.2,1140.0 722.6,1140.0 724.0,1140.0 725.3,1140.0 726.7,1140.0 728.0,1140.0 729.4,1140.0 730.8,1140.0 732.1,1140.0 733.5,1140.0 734.9,1140.0 736.2,1140.0 737.6,1140.0 738.9,1140.0 740.3,1140.0 741.7,1140.0 743.0,1140.0 744.4,1140.0 745.8,1140.0 747.1,1140.0 748.5,1140.0 749.8,1140.0 751.2,1140.0 752.6,1140.0 753.9,1140.0 755.3,1140.0 756.7,1140.0 758.0,1140.0 759.4,1140.0 760.8,1140.0 762.1,1140.0 763.5,1140.0 764.8,1140.0 766.2,1140.0 767.6,1140.0 768.9,1140.0 770.3,1140.0 771.7,1140.0 773.0,1140.0 774.4,1140.0 775.7,1140.0 777.1,1140.0 778.5,1140.0 779.8,1140.0 781.2,1140.0 782.6,1140.0 783.9,1140.0 785.3,1140.0 786.6,1140.0 788.0,1140.0 789.4,1140.0 790.7,1140.0 792.1,1140.0 793.5,1140.0 794.8,1140.0 796.2,1140.0 797.5,1140.0 798.9,1140.0 800.3,1140.0 801.6,1140.0 803.0,1140.0" fill="none" stroke="#c35c20" stroke-width="1.8"/>
<text x="634.0" y="1174" text-anchor="middle">Round</text>
<text x="831" y="982" class="panel">Space control proxy · % of map</text>
<path d="M870,1140h338" stroke="#dce1e5"/>
<text x="864" y="1144" text-anchor="end">0</text>
<text x="870" y="1158" text-anchor="middle">0</text>
<path d="M870,1068.5h338" stroke="#dce1e5"/>
<text x="864" y="1072.5" text-anchor="end">50</text>
<text x="1039.0" y="1158" text-anchor="middle">124</text>
<path d="M870,997h338" stroke="#dce1e5"/>
<text x="864" y="1001" text-anchor="end">100</text>
<text x="1208" y="1158" text-anchor="middle">248</text>
<polyline points="870.0,1086.4 883.6,1084.1 897.3,1076.6 910.9,1077.7 924.5,1102.9 938.1,1105.4 951.8,1109.1 965.4,1107.8 979.0,1105.8 992.7,1101.9 1006.3,1113.5 1019.9,1124.3 1033.5,1117.6 1047.2,1120.2 1060.8,1131.2 1074.4,1129.4 1088.1,1130.0 1101.7,1129.2 1115.3,1128.1 1129.0,1119.2 1142.6,1125.1 1156.2,1132.5 1169.8,1122.5 1183.5,1135.6 1197.1,1137.5 1208.0,1140.0" fill="none" stroke="#1677b8" stroke-width="1.8"/>
<polyline points="870.0,1086.4 883.6,1087.4 897.3,1101.4 910.9,1093.9 924.5,1070.5 938.1,1064.3 951.8,1060.6 965.4,1070.9 979.0,1067.8 992.7,1067.8 1006.3,1054.9 1019.9,1044.2 1033.5,1052.4 1047.2,1048.3 1060.8,1038.2 1074.4,1039.7 1088.1,1039.5 1101.7,1039.8 1115.3,1041.5 1129.0,1052.1 1142.6,1042.1 1156.2,1034.3 1169.8,1045.2 1183.5,1036.7 1197.1,1030.2 1208.0,1026.7" fill="none" stroke="#c35c20" stroke-width="1.8"/>
<text x="1039.0" y="1174" text-anchor="middle">Round</text>
<text x="20" y="1203">Control is a terrain-only nearest-head proxy. Collision counts describe outcomes, not intent. See the report for definitions.</text></svg>